<?xml version="1.0" standalone="no"?>
<!DOCTYPE svg PUBLIC "-//W3C//DTD SVG 20010904//EN"
 "http://www.w3.org/TR/2001/REC-SVG-20010904/DTD/svg10.dtd">
<svg version="1.0" xmlns="http://www.w3.org/2000/svg"
 width="3264.000000pt" height="3264.000000pt" viewBox="0 0 3264.000000 3264.000000"
 preserveAspectRatio="xMidYMid meet">

<g transform="translate(0.000000,3264.000000) scale(0.100000,-0.100000)"
fill="#000000" stroke="none">
<path d="M15030 32149 c-2336 -58 -4674 -686 -6723 -1804 -1555 -848 -2897
-1917 -4063 -3235 -1036 -1171 -1878 -2500 -2511 -3960 -615 -1418 -1018
-2994 -1158 -4530 -58 -640 -68 -1001 -62 -2270 4 -1056 8 -1197 43 -1650 205
-2706 1155 -5319 2739 -7535 1033 -1446 2335 -2711 3800 -3693 906 -607 1801
-1081 2780 -1474 1368 -548 2826 -893 4295 -1017 542 -46 559 -46 1965 -46
1379 0 1371 0 1885 40 2344 186 4657 944 6644 2178 1271 789 2353 1702 3352
2827 1099 1238 2034 2756 2654 4310 555 1389 899 2847 1019 4320 45 543 46
605 46 1930 0 1325 -1 1387 -46 1930 -192 2349 -950 4642 -2197 6645 -632
1015 -1323 1879 -2184 2731 -429 425 -757 717 -1188 1060 -1496 1191 -3234
2097 -5054 2634 -1085 320 -2199 517 -3346 590 -436 28 -1928 38 -2690 19z
m1560 -699 c553 -18 999 -55 1520 -126 2413 -326 4652 -1208 6650 -2619 986
-697 1897 -1531 2715 -2485 949 -1107 1748 -2389 2342 -3760 639 -1474 1039
-3065 1172 -4665 42 -504 46 -610 46 -1255 0 -645 -4 -751 -46 -1255 -232
-2796 -1261 -5484 -2962 -7740 -653 -866 -1421 -1674 -2293 -2415 -853 -726
-1897 -1414 -2914 -1921 -1508 -752 -3052 -1229 -4710 -1453 -1207 -164 -2491
-176 -3685 -36 -2644 312 -5099 1286 -7220 2865 -1020 759 -2001 1715 -2787
2713 -1825 2319 -2919 5097 -3157 8022 -39 475 -46 648 -46 1220 0 659 22
1074 86 1645 298 2669 1294 5176 2915 7336 583 777 1308 1558 2074 2234 1233
1089 2744 2016 4293 2634 1914 764 3980 1129 6007 1061z"/>
<path d="M15575 28095 c-5 -2 -62 -8 -125 -14 -146 -13 -295 -50 -470 -118
-58 -23 -95 -40 -230 -108 -19 -10 -48 -28 -65 -39 -16 -12 -47 -30 -70 -42
-37 -19 -40 -24 -37 -57 3 -42 -14 -80 -69 -154 -47 -62 -48 -85 -13 -179 14
-38 28 -78 31 -89 4 -11 21 -43 39 -71 25 -40 39 -53 65 -58 19 -4 132 -11
251 -15 216 -8 219 -8 275 -38 69 -36 137 -114 147 -168 8 -41 0 -59 -15 -33
-8 15 -40 17 -287 19 -152 1 -299 3 -327 3 -50 1 -50 1 -48 -29 3 -46 -18
-208 -30 -230 -6 -11 -14 -38 -17 -60 -7 -45 -4 -65 -29 190 -18 183 -43 266
-129 425 -98 182 -266 371 -420 474 -84 55 -238 134 -281 142 -35 7 -56 28
-45 45 7 12 214 7 339 -7 l50 -6 -19 21 c-48 53 -147 99 -294 136 -125 32
-470 29 -577 -4 -16 -5 -50 -14 -75 -21 -125 -31 -282 -89 -367 -136 -83 -45
-185 -123 -180 -138 2 -6 19 -22 38 -34 30 -21 41 -23 104 -18 233 20 351 19
314 -5 -7 -5 -25 -9 -37 -9 -13 0 -53 -13 -89 -30 -35 -16 -66 -30 -68 -30
-13 0 -111 -75 -117 -90 -4 -10 5 -41 21 -76 15 -33 39 -84 52 -114 32 -75 65
-127 87 -139 10 -5 115 -13 233 -16 270 -9 474 -28 516 -50 45 -23 109 -103
117 -147 l7 -37 -32 16 c-24 12 -39 14 -58 7 -18 -7 -33 -6 -51 3 -19 10 -104
13 -358 12 l-333 0 6 -27 c9 -43 -13 -304 -34 -400 -19 -84 -63 -214 -80 -236
-5 -6 -12 -22 -16 -34 -9 -31 -45 -68 -45 -48 0 8 4 17 8 20 9 5 25 63 56 196
31 137 29 362 -5 506 -13 56 -66 204 -89 249 -70 135 -260 345 -420 464 -92
68 -272 159 -378 192 -48 14 -70 25 -64 31 13 13 169 12 219 -1 59 -14 163
-23 163 -13 0 13 -108 91 -155 112 -131 58 -232 75 -455 74 -191 -1 -316 -12
-382 -33 -18 -6 -60 -18 -93 -27 -249 -70 -407 -142 -610 -280 l-50 -33 -225
-15 c-124 -8 -238 -19 -253 -25 -16 -6 -40 -11 -55 -11 -15 0 -47 -6 -72 -14
-25 -8 -74 -23 -110 -35 -134 -41 -147 -46 -281 -109 -233 -110 -436 -252
-618 -432 -208 -206 -379 -461 -494 -735 -38 -91 -98 -280 -109 -343 -44 -260
-48 -316 -54 -737 -3 -236 -10 -431 -15 -446 -6 -14 -24 -33 -42 -41 -61 -30
-304 -258 -401 -377 -137 -167 -256 -347 -323 -491 -115 -245 -138 -314 -193
-580 -16 -82 -39 -452 -29 -472 5 -9 9 -52 9 -95 1 -84 11 -175 34 -293 30
-156 42 -199 92 -343 l24 -69 -68 -71 c-38 -40 -84 -92 -102 -117 -19 -25 -51
-65 -72 -88 -42 -50 -170 -239 -216 -322 -51 -92 -102 -194 -102 -206 0 -5 -9
-29 -20 -52 -27 -55 -74 -202 -100 -310 -11 -48 -25 -103 -30 -122 -30 -117
-46 -519 -26 -680 62 -496 274 -966 588 -1302 61 -65 240 -225 292 -261 45
-31 33 -48 -81 -122 -261 -168 -458 -329 -616 -503 -106 -116 -219 -262 -276
-355 -95 -155 -221 -434 -250 -552 -6 -22 -17 -67 -26 -100 -51 -195 -75 -500
-57 -724 12 -154 26 -255 42 -306 5 -16 17 -57 26 -90 45 -166 84 -265 165
-424 49 -96 89 -180 89 -189 0 -8 -12 -29 -27 -47 -32 -37 -42 -49 -103 -129
-24 -32 -49 -67 -55 -76 -5 -10 -40 -67 -76 -127 -37 -59 -86 -148 -109 -198
-23 -49 -48 -103 -56 -120 -54 -114 -128 -363 -153 -515 -83 -496 -55 -903 89
-1315 83 -236 248 -519 432 -740 154 -185 414 -403 607 -510 10 -6 25 -16 32
-22 23 -18 229 -120 319 -156 160 -66 272 -99 440 -132 47 -9 114 -23 150 -31
36 -8 81 -14 100 -15 19 -1 46 -4 60 -8 l25 -7 6 -1859 c5 -1687 7 -1872 22
-1985 10 -69 22 -138 27 -155 4 -16 11 -48 15 -70 3 -22 10 -53 15 -70 5 -16
17 -57 26 -90 30 -111 93 -290 136 -385 174 -381 456 -729 794 -980 218 -162
348 -238 544 -320 214 -89 332 -124 610 -177 91 -17 302 -18 5200 -17 4755 0
5113 2 5225 17 547 78 991 294 1361 662 190 190 340 415 469 710 46 105 101
288 137 460 29 138 30 274 37 2652 4 1853 9 2455 18 2464 9 9 78 7 295 -7 345
-23 830 -26 928 -6 206 43 378 128 486 240 113 116 157 185 206 324 32 91 33
96 33 268 0 178 -7 231 -46 355 -48 148 -140 305 -258 438 -67 76 -481 490
-611 612 -162 151 -280 267 -280 276 0 4 24 24 53 44 28 20 106 74 172 120 66
47 170 119 230 161 564 391 600 416 770 549 48 37 210 203 244 249 50 68 95
149 121 216 11 30 25 64 30 75 27 59 59 250 60 357 0 109 -35 326 -60 363 -4
6 -15 33 -25 60 -98 272 -411 524 -730 590 -133 28 -265 45 -344 45 -42 0 -81
4 -88 8 -8 5 104 125 340 363 466 470 868 883 952 979 22 25 68 77 101 115 80
91 167 203 221 287 50 78 143 259 143 280 0 8 4 18 9 23 6 6 15 30 21 55 7 25
18 72 27 105 42 168 43 362 3 555 -35 171 -109 300 -254 446 -151 151 -271
214 -519 273 -58 14 -346 14 -406 0 -23 -5 -68 -14 -100 -19 -31 -5 -90 -16
-131 -24 -41 -9 -76 -16 -77 -16 -1 0 1 8 4 18 5 13 179 211 204 232 3 3 25
28 49 55 24 28 89 100 145 160 98 105 233 258 359 409 33 39 62 73 65 76 3 3
24 28 46 55 21 28 42 52 46 55 20 16 152 189 201 264 95 145 188 363 188 442
0 16 7 51 15 78 10 34 15 94 15 191 0 240 -50 424 -159 583 -62 90 -163 182
-286 259 -153 96 -347 136 -590 121 -71 -5 -159 -13 -195 -19 -36 -6 -94 -15
-130 -19 -36 -4 -85 -12 -110 -18 -25 -6 -81 -18 -125 -27 -44 -9 -105 -23
-136 -31 -30 -8 -65 -14 -78 -14 -12 0 -43 -6 -69 -14 -26 -8 -83 -22 -127
-31 -44 -9 -102 -23 -129 -31 -26 -8 -57 -14 -68 -14 -11 0 -27 -4 -37 -10
-10 -5 -43 -14 -72 -19 -30 -5 -85 -17 -124 -26 -38 -9 -94 -20 -123 -25 -51
-8 -69 -12 -216 -45 -49 -11 -73 -12 -82 -4 -10 8 -14 226 -17 1092 -3 689 -9
1104 -15 1142 -6 33 -16 89 -22 125 -6 36 -15 79 -20 95 -5 17 -17 57 -26 90
-46 170 -152 422 -239 570 -45 75 -155 235 -179 261 -6 6 -36 42 -66 79 -132
161 -337 342 -531 468 -102 67 -348 187 -414 203 -17 4 -34 9 -40 13 -5 3 -28
11 -50 17 -22 7 -65 20 -95 29 -80 24 -182 44 -285 55 -49 5 -120 14 -157 21
-37 6 -72 8 -77 4 -6 -3 -20 -25 -31 -48 -11 -23 -30 -57 -42 -76 -44 -69 -16
-218 64 -333 13 -19 28 -28 46 -28 14 0 51 -6 81 -14 31 -8 94 -24 141 -35
184 -45 406 -146 542 -248 35 -25 82 -60 105 -77 23 -17 43 -36 43 -43 0 -7 8
-17 18 -22 9 -5 51 -52 92 -105 41 -53 89 -111 106 -130 17 -19 36 -54 44 -78
7 -24 18 -49 24 -57 11 -14 30 -63 47 -118 5 -18 14 -35 19 -38 6 -4 10 -18
10 -33 1 -15 7 -38 15 -52 8 -14 15 -36 15 -50 0 -14 7 -43 15 -65 8 -22 14
-56 15 -75 0 -19 8 -55 16 -80 15 -39 16 -109 15 -550 -1 -278 -6 -593 -12
-700 -6 -107 -14 -564 -18 -1015 -6 -650 -10 -825 -20 -845 -8 -14 -46 -57
-85 -95 -39 -39 -91 -95 -116 -124 -43 -52 -113 -131 -189 -216 -20 -21 -56
-69 -81 -106 -25 -37 -97 -126 -160 -199 -63 -73 -150 -174 -194 -224 -43 -50
-126 -141 -185 -202 -58 -61 -113 -119 -121 -130 -9 -10 -38 -44 -65 -75 -28
-31 -90 -105 -140 -163 -147 -176 -299 -322 -329 -317 -10 1 -15 -2 -12 -7 9
-15 -13 -70 -31 -76 -23 -9 -28 1 -14 30 6 14 9 29 6 34 -3 5 3 11 12 13 18 5
-13 9 -69 9 -16 1 -28 4 -28 8 0 17 -50 7 -55 -11 -6 -17 -17 -19 -86 -19 -44
0 -78 -4 -75 -9 3 -4 -2 -8 -12 -8 -35 0 -41 -3 -39 -22 1 -12 7 -17 18 -14
10 3 18 -3 21 -14 6 -23 -1 -43 -14 -43 -6 0 -6 6 2 15 20 24 0 17 -21 -7
l-20 -23 3 45 c1 28 -2 44 -9 43 -14 -3 -11 14 10 56 16 33 16 34 -4 52 -12
11 -19 25 -15 34 4 12 26 15 120 15 l116 0 6 -27 c5 -17 3 -28 -4 -31 -7 -2
-12 -8 -12 -14 0 -6 6 -6 15 2 8 7 21 10 29 7 7 -3 26 8 41 23 16 16 33 27 38
23 6 -3 7 -1 3 5 -3 6 2 13 11 15 24 6 -55 8 -346 8 -134 0 -246 -3 -249 -6
-3 -3 16 -6 41 -6 26 -1 52 -3 57 -4 6 -1 35 -3 65 -4 40 -1 55 -5 55 -15 0
-16 -21 -26 -55 -26 -13 0 -26 -4 -29 -9 -4 -5 -14 -8 -24 -6 -9 1 -29 -8 -43
-22 -18 -16 -29 -21 -34 -14 -3 6 -11 8 -17 5 -7 -4 -8 -2 -4 4 4 7 1 12 -8
12 -26 0 -29 -21 -7 -51 12 -16 21 -35 20 -42 0 -6 2 -22 6 -35 5 -16 11 -20
19 -13 9 7 17 4 29 -10 10 -11 23 -17 29 -13 6 4 8 3 4 -4 -3 -6 -2 -13 3 -16
5 -4 13 -1 17 6 5 7 11 3 17 -13 6 -13 10 -27 9 -31 -1 -3 5 -12 14 -18 13
-11 13 -15 -2 -31 -15 -17 -19 -17 -51 -4 -20 8 -48 15 -63 15 -16 0 -30 7
-34 15 -3 8 -15 15 -26 15 -11 0 -28 4 -38 9 -9 6 -62 19 -117 31 -55 12 -109
25 -121 30 -12 4 -48 11 -80 15 -32 4 -65 12 -72 18 -13 10 -221 48 -362 67
-536 69 -1269 64 -1795 -11 -38 -6 -106 -14 -150 -18 -44 -5 -93 -13 -108 -20
-16 -6 -45 -11 -66 -11 -21 0 -60 -7 -87 -15 -27 -8 -62 -15 -77 -15 -16 0
-56 -6 -90 -14 -34 -8 -98 -22 -142 -32 -44 -9 -94 -21 -111 -26 -18 -5 -54
-13 -80 -17 -66 -12 -166 -35 -239 -56 -33 -9 -82 -23 -110 -30 -27 -7 -106
-29 -175 -49 -69 -20 -150 -43 -180 -52 -30 -9 -91 -27 -135 -41 -44 -14 -93
-29 -110 -34 -74 -20 -471 -164 -570 -206 -33 -14 -87 -38 -120 -53 -33 -15
-85 -38 -115 -50 -30 -12 -102 -45 -160 -72 -58 -27 -125 -59 -150 -70 -25
-11 -72 -33 -106 -49 -33 -16 -63 -29 -66 -29 -3 0 -35 -16 -70 -36 -34 -20
-94 -53 -133 -74 -141 -75 -498 -286 -552 -326 -17 -13 -34 -24 -36 -24 -22 0
-656 -444 -692 -485 -5 -6 -37 -31 -70 -56 -53 -39 -272 -223 -285 -239 -3 -3
-34 -30 -70 -59 -192 -159 -403 -372 -677 -685 -59 -67 -257 -318 -298 -376
-21 -30 -54 -75 -74 -100 -50 -61 -172 -241 -205 -300 -16 -28 -73 -111 -113
-166 -15 -20 -32 -49 -54 -94 -13 -25 -42 -73 -66 -108 -27 -39 -43 -74 -43
-93 0 -16 -4 -29 -9 -29 -11 0 -51 -80 -51 -103 0 -10 -8 -17 -20 -17 -14 0
-20 -7 -20 -22 0 -11 -11 -36 -25 -54 -14 -18 -25 -39 -26 -46 0 -7 -4 -4 -9
7 -5 13 -3 28 6 43 10 15 13 34 8 60 -4 20 -9 31 -11 25 -3 -7 -11 -13 -18
-13 -16 0 -26 25 -19 45 8 19 -3 19 -23 0 -8 -9 -17 -15 -18 -13 -2 2 -6 100
-8 218 -3 121 -10 227 -16 243 -16 40 -14 136 4 204 8 31 15 82 15 112 0 64 8
65 11 1 3 -54 15 -73 41 -64 12 3 27 -1 39 -12 25 -22 132 -32 154 -14 21 18
7 33 -25 26 -37 -7 -62 18 -28 28 13 3 35 6 51 6 15 0 27 6 27 13 0 16 -88 21
-124 7 -30 -11 -34 3 -11 34 12 16 18 17 27 8 15 -15 55 -16 63 -2 5 8 12 7
22 -2 37 -30 55 -14 62 54 1 4 12 20 26 35 14 15 29 33 34 39 5 6 30 51 56
100 26 49 54 94 61 100 8 6 21 28 29 48 9 20 22 39 30 43 8 3 15 10 15 17 0 6
9 17 20 24 21 13 26 37 10 47 -13 8 -58 -23 -65 -45 -3 -10 -14 -20 -24 -23
-15 -3 -17 0 -13 17 3 11 14 29 25 38 13 12 18 26 15 43 -3 14 -2 27 1 29 4 3
6 32 4 66 -2 49 2 65 18 81 11 11 24 17 29 14 12 -8 13 -35 1 -35 -11 0 -21
-38 -14 -56 7 -20 24 -17 30 5 2 10 18 28 34 40 16 12 29 28 29 35 0 8 14 19
30 25 17 5 30 17 30 26 0 10 5 13 13 9 9 -6 9 -5 0 7 -11 13 -9 19 10 36 12
11 29 19 38 18 12 -2 15 3 11 18 -3 12 -1 18 5 14 6 -4 16 0 22 7 10 11 7 19
-10 35 -12 11 -19 26 -16 34 3 8 0 20 -6 26 -8 8 -1 10 31 8 25 -2 47 2 52 9
6 6 32 18 58 25 l47 14 -50 6 c-57 7 -566 2 -573 -6 -3 -3 40 -5 96 -5 109 0
132 -5 132 -27 0 -8 4 -12 9 -8 5 3 13 1 16 -5 5 -8 11 -8 20 0 10 8 15 8 20
0 5 -8 10 -8 20 0 10 8 15 8 20 0 5 -8 10 -8 20 0 10 8 15 8 20 0 5 -8 10 -8
20 0 8 7 15 7 19 1 4 -5 2 -12 -4 -16 -5 -3 -10 -3 -10 1 0 3 -7 0 -16 -7 -18
-15 -146 -21 -137 -6 3 5 -4 3 -16 -5 -13 -8 -19 -19 -15 -30 6 -21 11 -20
-101 -20 -47 0 -91 1 -99 1 -8 1 -17 15 -21 32 -6 26 -11 30 -33 28 -15 -2
-33 0 -40 5 -13 8 -28 -17 -18 -32 3 -6 -1 -15 -9 -22 -12 -10 -15 -10 -15 0
0 7 -6 10 -14 7 -19 -8 -62 38 -45 48 8 5 10 4 5 -3 -4 -7 -3 -12 3 -12 5 0
11 5 13 11 3 10 40 16 106 18 21 1 32 6 32 16 0 12 -19 15 -114 15 -89 0 -116
3 -126 15 -8 9 -29 15 -55 15 -41 0 -44 2 -55 35 -7 23 -12 116 -12 258 0 122
0 274 -1 338 -2 99 1 120 16 136 10 11 17 35 17 57 0 34 2 36 20 26 13 -7 20
-21 20 -40 0 -27 3 -30 34 -30 27 0 34 4 31 18 -2 9 -4 25 -4 35 -1 11 -10 21
-20 24 -29 7 -32 29 -9 50 14 12 18 13 13 3 -7 -12 -6 -13 6 -4 20 16 60 7 77
-17 8 -11 25 -24 38 -29 24 -10 84 -3 82 9 0 3 1 11 2 16 7 33 3 51 -15 61
-11 6 -19 16 -17 22 1 7 -8 12 -20 12 -13 1 -33 6 -46 14 -21 11 -22 14 -8 26
11 8 13 17 7 24 -6 6 -7 16 -3 22 13 20 45 11 60 -16 15 -25 53 -50 79 -50 18
0 21 -49 3 -60 -4 -3 -4 -30 1 -60 5 -30 5 -58 1 -61 -4 -4 -39 -9 -77 -11
-39 -2 -76 -7 -83 -12 -6 -4 -12 -2 -12 3 0 6 -7 11 -16 11 -9 0 -14 -6 -12
-12 6 -17 884 -24 904 -7 12 10 91 7 154 -5 112 -23 560 -36 560 -16 0 26 -50
34 -205 33 -88 0 -151 3 -140 7 11 3 83 6 160 5 134 -1 141 0 161 22 20 22 23
22 38 7 9 -9 22 -13 29 -10 37 20 61 36 53 36 -5 0 -1 9 9 20 10 11 22 17 28
13 6 -3 7 -1 3 5 -4 7 -1 12 8 12 9 0 15 5 14 11 -2 6 6 16 17 22 11 7 23 16
27 22 4 5 10 6 14 2 4 -4 13 -2 19 3 9 8 14 5 18 -9 3 -11 2 -20 -2 -19 -22 4
-41 -17 -41 -47 0 -35 20 -59 28 -34 10 29 111 118 195 171 53 33 59 47 22 49
-14 1 -31 2 -37 3 -18 3 -39 -14 -32 -25 3 -5 -1 -9 -9 -9 -11 0 -13 7 -9 22
3 13 1 19 -5 15 -8 -5 -7 1 0 17 7 14 14 24 17 24 23 -2 40 4 35 11 -3 5 0 13
7 17 8 5 6 10 -8 15 -19 7 -19 7 0 15 13 5 23 2 32 -11 11 -15 16 -16 29 -5 8
7 13 16 10 20 -3 5 -1 11 5 15 6 4 8 11 5 16 -10 15 -42 10 -49 -7 -5 -13 -9
-14 -21 -4 -14 12 -14 15 0 30 8 9 15 25 15 36 0 11 3 15 8 8 12 -18 42 -25
36 -9 -7 16 36 31 61 21 13 -5 14 -8 3 -20 -7 -8 -15 -12 -17 -10 -6 5 -31
-17 -31 -27 0 -5 5 -9 11 -9 5 0 7 5 3 12 -5 7 0 9 14 6 14 -4 28 2 43 18 12
13 28 24 35 24 6 0 17 7 24 15 7 8 27 15 45 15 36 0 65 23 44 35 -6 4 -30 9
-53 10 -22 1 -40 6 -39 12 1 5 -10 9 -25 8 -15 -1 -38 3 -52 8 -16 7 -431 11
-1163 12 -950 2 -1141 5 -1152 16 -20 21 -25 720 -6 769 8 19 16 41 18 49 3
11 6 10 17 -4 12 -17 15 -17 37 -2 23 17 52 90 40 102 -3 4 -6 34 -7 68 l-1
62 -34 0 c-24 0 -35 5 -37 17 -3 14 4 17 40 15 37 -2 43 1 43 18 0 16 -6 20
-30 18 -44 -2 -77 6 -69 18 3 6 23 10 43 8 53 -3 61 -1 61 16 0 10 -10 15 -29
15 -54 0 -81 26 -48 47 6 4 235 8 507 10 402 2 497 0 510 -11 21 -19 209 -18
229 2 11 10 38 12 125 7 61 -3 140 -6 176 -6 96 -1 401 13 396 19 -3 2 -448 5
-990 6 -793 1 -988 4 -998 14 -18 18 -16 3411 2 3512 16 94 36 154 81 247 106
217 275 359 526 440 l88 28 510 -2 c281 -1 816 -8 1190 -17 374 -9 889 -21
1145 -27 256 -6 650 -15 875 -19 623 -14 1286 -28 1518 -34 115 -3 515 -10
890 -16 668 -9 1227 -21 1997 -41 212 -5 657 -16 990 -24 1002 -25 1082 -30
1244 -80 80 -25 208 -100 291 -172 75 -65 194 -205 195 -229 0 -7 14 -38 30
-69 17 -31 30 -65 30 -74 0 -9 6 -26 14 -37 8 -11 16 -33 18 -49 1 -17 8 -28
13 -25 6 3 10 213 10 600 0 608 -3 673 -42 850 -83 382 -338 725 -688 923
-107 61 -312 136 -371 137 -10 0 -28 7 -38 15 -11 8 -30 15 -41 15 -20 0 -23
-7 -29 -61 -3 -34 -6 -94 -6 -133 0 -39 -9 -115 -20 -169 -19 -93 -64 -240
-80 -262 -4 -5 -12 -24 -18 -41 -12 -37 -93 -164 -104 -164 -15 0 -8 27 16 71
72 130 115 329 116 535 0 167 -16 265 -68 414 -65 188 -127 286 -276 436 -136
136 -236 204 -391 265 -69 27 -97 50 -81 66 10 11 149 10 259 -1 100 -10 109
-2 48 42 -65 47 -192 93 -351 126 -87 19 -313 22 -405 5 -33 -6 -85 -14 -115
-19 -30 -4 -79 -15 -107 -24 -29 -9 -74 -22 -100 -30 -106 -30 -318 -128 -326
-151 -5 -11 21 -30 94 -72 137 -79 164 -97 164 -110 0 -7 -20 -23 -45 -36 -25
-13 -58 -42 -74 -64 l-28 -41 32 -99 c18 -54 35 -102 39 -108 4 -5 18 -37 30
-71 l22 -61 112 -6 c364 -21 436 -28 480 -47 65 -29 147 -127 147 -175 0 -14
-30 -15 -302 -10 -167 4 -316 7 -333 8 l-30 2 3 -155 c4 -165 -9 -275 -51
-415 -20 -68 -66 -164 -90 -190 -7 -7 -19 -22 -27 -34 -28 -40 -29 -21 -2 32
50 98 75 179 91 302 20 146 10 274 -39 520 -34 168 -189 426 -348 582 -74 71
-288 223 -316 223 -3 0 -29 11 -58 24 -29 14 -84 35 -123 47 -38 12 -74 25
-78 29 -4 4 13 15 39 25 41 16 66 17 203 11 149 -7 154 -6 139 11 -50 54 -215
128 -323 143 -33 5 -80 13 -105 19 -60 13 -279 14 -355 0 -33 -6 -87 -14 -120
-18 -65 -9 -139 -26 -195 -46 -19 -7 -53 -18 -75 -25 -42 -13 -56 -19 -175
-71 -94 -42 -191 -101 -187 -114 2 -5 32 -29 68 -51 167 -108 176 -124 108
-192 -31 -30 -42 -49 -42 -71 0 -68 120 -293 165 -310 13 -5 131 -12 263 -16
293 -8 324 -15 408 -95 63 -59 92 -103 83 -126 -4 -11 -11 -12 -24 -5 -10 6
-24 6 -32 1 -8 -5 -107 -6 -220 -3 -185 5 -208 4 -223 -11 -15 -15 -17 -16
-17 -2 0 9 -7 16 -16 16 -10 0 -14 -6 -11 -14 3 -8 -1 -17 -9 -20 -9 -3 -14 1
-14 13 0 19 -23 35 -34 24 -3 -4 -6 -15 -6 -25 0 -13 -6 -18 -17 -16 -10 2
-18 11 -18 21 0 17 -21 37 -39 37 -4 0 -6 -12 -2 -27 9 -41 36 -208 46 -284 5
-36 13 -84 18 -105 17 -66 25 -376 11 -409 -12 -29 -13 -27 -21 45 -4 41 -13
95 -19 120 -6 25 -15 72 -19 105 -8 57 -20 116 -41 195 -4 19 -15 64 -24 100
-17 71 -50 188 -67 235 -50 139 -195 419 -233 450 -7 5 -39 46 -72 90 -70 93
-175 196 -288 281 -156 117 -246 168 -370 209 -44 15 -86 33 -94 40 -12 12
-11 16 13 25 42 15 254 7 312 -12 5 -2 11 2 13 7 10 24 -130 90 -264 125 -144
37 -383 62 -430 45z m-1689 -621 c107 -42 199 -101 265 -171 44 -46 149 -216
149 -241 0 -7 4 -20 10 -30 12 -22 33 -75 53 -132 44 -125 74 -395 56 -513
-11 -72 -42 -181 -66 -227 -7 -14 -13 -31 -13 -37 0 -7 -6 -13 -14 -13 -11 0
-11 9 -1 58 8 31 19 75 26 97 26 86 14 342 -25 500 -58 239 -244 531 -414 647
-26 17 -53 38 -60 45 -7 7 -20 13 -28 13 -8 0 -14 5 -14 10 0 15 32 12 76 -6z
m1505 -16 c186 -92 346 -244 421 -398 56 -116 82 -176 89 -210 4 -19 19 -75
33 -125 27 -95 32 -141 16 -165 -10 -16 -13 -10 -23 40 -10 50 -102 277 -147
364 -26 50 -78 128 -116 175 -105 131 -309 312 -367 326 -15 4 -27 11 -27 16
0 19 60 8 121 -23z m535 -62 c87 -64 250 -241 267 -288 5 -15 18 -18 70 -18
55 0 70 -4 104 -29 52 -37 91 -106 105 -181 5 -33 14 -60 19 -60 5 0 9 -4 9
-10 0 -16 -32 -12 -52 6 -14 14 -20 14 -33 4 -9 -7 -19 -10 -23 -6 -4 4 4 17
17 27 27 22 18 44 -15 37 -14 -2 -19 -12 -19 -35 0 -40 -6 -45 -50 -45 -48 0
-53 7 -25 37 26 28 26 31 -11 40 l-27 7 5 -169 c4 -132 2 -190 -12 -268 -26
-157 -54 -251 -101 -352 -29 -60 -104 -147 -104 -120 0 9 4 18 9 21 11 7 65
138 84 206 29 100 42 203 42 330 0 118 -5 153 -41 311 -28 124 -216 461 -303
543 -72 69 -4 79 85 12z m-3616 -11 c38 -25 93 -73 124 -106 58 -62 146 -201
146 -229 0 -9 4 -20 9 -25 11 -12 34 -94 57 -200 21 -98 26 -388 7 -420 -9
-15 -13 -16 -13 -5 -11 197 -46 394 -99 550 -46 133 -147 286 -272 413 -82 82
-64 92 41 22z m5553 -82 c-7 -2 -19 -2 -25 0 -7 3 -2 5 12 5 14 0 19 -2 13 -5z
m-6943 -24 c25 -5 173 -12 330 -14 303 -5 500 -24 555 -53 57 -30 116 -85 156
-145 41 -62 45 -72 29 -82 -5 -3 -15 5 -22 19 -6 14 -19 26 -30 26 -10 0 -18
4 -18 10 0 11 -47 25 -71 22 -9 -2 -28 2 -44 8 -22 8 -31 7 -45 -5 -15 -14
-18 -14 -30 0 -10 13 -47 15 -234 14 -121 0 -255 -4 -296 -9 -105 -13 -202
-30 -222 -41 -10 -5 -30 -9 -45 -9 -16 0 -40 -6 -54 -14 -14 -7 -52 -21 -85
-31 -58 -17 -118 -42 -219 -91 -81 -39 -325 -210 -388 -272 -87 -86 -152 -154
-179 -187 -30 -36 -117 -157 -140 -193 -26 -41 -138 -264 -138 -275 0 -5 -6
-23 -14 -40 -8 -18 -21 -54 -30 -82 -8 -27 -22 -72 -31 -99 -8 -27 -15 -63
-15 -78 0 -16 -5 -38 -11 -49 -10 -19 -18 -89 -38 -319 -12 -136 -26 -2854
-22 -4205 1 -577 5 -3781 7 -7120 3 -4037 8 -6132 15 -6255 20 -349 25 -404
42 -435 11 -20 15 -42 11 -65 -4 -21 1 -59 10 -90 9 -29 16 -69 16 -87 0 -19
5 -44 12 -56 6 -12 15 -40 20 -62 13 -68 34 -149 45 -175 6 -14 20 -52 31 -85
11 -33 29 -83 40 -112 11 -28 17 -54 14 -57 -3 -3 -18 -6 -34 -6 -31 0 -62 26
-73 62 -4 12 -18 46 -31 73 -141 305 -200 543 -224 905 -8 120 -10 2615 -7
9095 3 8184 5 8939 20 9035 18 120 38 211 61 290 9 30 21 69 26 85 51 174 168
401 277 540 131 167 292 333 374 387 15 9 32 23 40 30 32 30 98 77 166 117
100 59 109 73 47 67 -27 -2 -52 -4 -56 -5 -5 -1 -8 -8 -8 -16 0 -18 -17 -20
-23 -2 -5 16 -37 -9 -37 -29 0 -8 -6 -14 -14 -14 -8 0 -41 -21 -75 -46 -42
-32 -67 -44 -80 -39 -11 3 -22 1 -26 -5 -12 -19 -27 -10 -23 14 4 22 1 25 -26
28 -24 2 -31 8 -31 25 -1 40 5 40 -180 -10 -117 -33 -138 -41 -274 -105 -303
-142 -569 -375 -763 -667 -71 -107 -135 -230 -202 -387 -38 -92 -35 -87 -35
-46 -1 20 3 39 8 42 5 3 11 20 14 38 4 33 18 76 42 133 7 17 21 50 31 75 21
53 92 188 108 210 7 8 17 26 23 40 17 40 140 199 212 274 54 56 174 164 216
194 6 4 28 21 50 38 65 50 232 147 355 206 194 94 422 152 675 172 101 7 525
4 565 -5z m7011 -2 c-1 -4 -3 -7 -6 -7 -40 0 -40 0 -25 10 16 10 32 9 31 -3z
m132 -71 c107 -69 188 -149 186 -184 0 -15 -2 -14 -11 3 -11 22 -128 116 -220
178 -55 36 -72 57 -47 57 5 0 47 -24 92 -54z m1993 -166 c68 -77 124 -173 124
-211 0 -34 -16 -39 -26 -6 -11 37 -89 147 -163 231 -38 44 -68 83 -65 88 9 14
75 -38 130 -102z m146 -282 c-10 -22 -11 -21 -11 12 -1 26 2 31 11 22 8 -8 8
-17 0 -34z m-7887 -144 c41 -27 74 -94 91 -187 3 -21 12 -41 19 -43 7 -3 18
-23 25 -44 10 -32 11 -42 0 -55 -14 -17 -6 -46 12 -43 21 5 10 -61 -18 -109
-64 -110 -111 -125 -221 -70 -115 58 -159 117 -182 241 -19 100 17 230 76 280
67 56 141 68 198 30z m1732 -56 c23 -23 38 -52 48 -89 17 -65 22 -201 10 -285
-7 -57 -6 -63 14 -73 30 -16 26 -42 -11 -80 -36 -37 -54 -38 -161 -6 -98 28
-159 97 -190 212 -21 79 -21 116 0 179 22 66 54 114 95 146 42 32 61 38 117
33 34 -2 51 -10 78 -37z m1697 -43 c32 -16 88 -95 101 -145 28 -109 49 -160
65 -160 10 0 21 6 23 13 3 6 6 -14 6 -45 1 -31 -3 -59 -8 -62 -4 -3 -11 -24
-15 -46 -8 -50 -52 -119 -84 -131 -91 -35 -242 53 -302 175 -80 166 15 407
163 415 11 1 33 -6 51 -14z m2686 -70 c16 -8 31 -23 34 -33 3 -10 22 -35 41
-55 19 -20 35 -45 35 -55 0 -10 7 -28 16 -40 12 -18 14 -43 11 -125 -5 -126
-24 -198 -60 -234 -24 -24 -35 -28 -85 -27 -135 1 -258 124 -279 278 -11 83
54 236 119 275 53 33 123 39 168 16z m1696 -86 c30 -29 54 -61 54 -71 0 -9 5
-20 10 -23 6 -4 10 -66 10 -154 0 -116 -3 -155 -16 -180 -10 -21 -21 -30 -30
-27 -9 4 -18 -3 -24 -18 -27 -71 -186 -36 -259 59 -50 63 -70 119 -70 197 -2
165 96 285 222 275 43 -4 55 -10 103 -58z m-7616 -363 c0 -9 -40 -13 -46 -5
-3 5 6 9 20 9 14 0 26 -2 26 -4z m2126 -43 c-11 -11 -19 6 -11 24 8 17 8 17
12 0 3 -10 2 -21 -1 -24z m1771 -45 c-3 -8 -6 -5 -6 6 -1 11 2 17 5 13 3 -3 4
-12 1 -19z m3790 -114 c-3 -3 -12 -4 -19 -1 -8 3 -5 6 6 6 11 1 17 -2 13 -5z
m442 -21 c0 -25 -1 -25 -8 -8 -5 11 -7 23 -4 28 8 14 13 7 12 -20z m-12409
-1999 c0 -16 -16 -19 -25 -4 -8 13 4 32 16 25 5 -4 9 -13 9 -21z m-85 -71 c-3
-46 -1 -53 16 -53 14 0 19 7 19 28 0 21 2 24 10 12 5 -8 10 -24 10 -35 0 -11
5 -27 10 -35 8 -13 11 -12 24 5 14 18 15 18 16 3 0 -10 -4 -18 -8 -18 -14 0
-29 -64 -22 -85 4 -11 5 -24 1 -30 -3 -5 -6 -50 -6 -100 0 -98 -20 -327 -35
-414 -6 -30 -10 -83 -10 -118 0 -35 -3 -63 -7 -63 -19 1 -103 146 -103 178 0
10 -5 23 -10 28 -47 47 -42 475 6 566 8 14 14 37 14 51 0 14 7 38 15 54 8 15
22 47 32 69 22 50 32 35 28 -43z m820 -629 c13 -28 31 -80 40 -116 14 -59 15
-76 2 -164 -10 -71 -13 -165 -10 -329 2 -126 0 -264 -4 -305 -7 -66 -10 -75
-28 -75 -20 0 -20 9 -26 440 -5 335 -11 458 -22 516 -9 43 -13 87 -10 99 6 22
7 22 21 4 8 -10 25 -42 37 -70z m16145 -123 c0 -28 -100 -80 -285 -148 -22 -8
-47 -19 -55 -23 -9 -4 -31 -11 -50 -15 -32 -7 -126 -44 -219 -86 -24 -11 -67
-29 -95 -40 -28 -11 -65 -26 -83 -34 -17 -8 -35 -15 -40 -15 -5 0 -55 -23
-112 -51 -56 -28 -109 -48 -117 -45 -15 6 -54 86 -54 111 0 18 -45 45 -76 45
-15 0 -36 -7 -46 -17 -34 -30 -19 -187 29 -301 45 -109 177 -275 260 -328 70
-44 211 -112 243 -116 14 -2 26 -10 28 -19 4 -19 -108 -156 -250 -306 -57 -60
-189 -205 -295 -323 -105 -118 -216 -241 -246 -273 l-54 -58 -289 3 c-211 2
-295 -1 -311 -10 -11 -6 -72 -71 -134 -144 -62 -73 -133 -156 -158 -184 -26
-29 -51 -58 -56 -65 -12 -16 -196 -232 -204 -239 -4 -3 -24 -27 -46 -55 -22
-27 -44 -54 -51 -60 -6 -5 -53 -59 -104 -120 -52 -60 -135 -153 -185 -205 -51
-52 -109 -116 -131 -141 -111 -131 -267 -299 -279 -299 -7 0 -57 42 -111 94
-55 52 -119 109 -142 128 -23 18 -73 58 -110 89 -37 31 -94 71 -127 90 -33 18
-89 54 -125 78 -36 25 -83 57 -105 72 -22 15 -51 39 -65 54 -14 15 -35 31 -47
36 -38 14 -46 43 -20 77 12 17 37 52 56 78 18 25 34 58 34 72 0 15 11 38 28
54 30 30 89 133 89 155 0 17 -17 17 -27 -1 -24 -40 -222 -263 -248 -278 -7 -4
-20 -19 -29 -33 -14 -21 -15 -29 -5 -41 21 -26 2 -26 -63 0 -36 14 -72 26 -81
26 -34 0 -14 38 74 138 49 57 130 156 179 220 95 124 188 238 390 478 164 194
158 187 231 278 201 251 298 374 416 531 50 66 129 167 177 225 48 58 128 158
178 223 52 68 102 123 117 129 14 5 64 19 111 29 47 11 114 27 150 35 36 9 83
20 105 24 22 5 85 20 140 33 55 13 138 32 185 41 47 10 108 24 135 31 28 7 86
21 130 30 44 10 94 21 110 26 17 5 50 13 75 18 25 5 115 27 200 48 85 22 178
45 205 51 107 24 232 53 270 62 22 5 78 16 125 25 47 9 114 23 150 30 119 26
213 44 380 74 91 16 188 34 215 39 88 16 115 15 115 -7z m-17450 -76 c4 -5 10
-28 14 -50 16 -94 97 -275 168 -375 21 -30 44 -63 51 -74 52 -78 126 -165 209
-246 l98 -95 0 -50 c0 -28 -3 -80 -6 -116 l-7 -67 -31 19 c-45 26 -203 193
-255 269 -41 59 -118 204 -147 275 -6 17 -19 47 -28 68 -9 21 -16 44 -16 52 0
8 -6 29 -14 47 -31 73 -66 267 -65 358 1 61 1 63 11 30 5 -19 13 -39 18 -45z
m-125 -1307 c10 -31 61 -84 96 -99 16 -6 29 -17 29 -23 0 -6 -36 -67 -80 -136
-83 -129 -168 -314 -189 -410 -7 -30 -21 -91 -31 -135 -50 -218 -44 -436 17
-665 61 -231 206 -464 384 -618 151 -131 326 -253 384 -268 55 -14 58 -26 53
-238 -2 -108 -8 -199 -12 -203 -10 -11 -122 21 -202 57 -162 74 -333 192 -459
316 -81 80 -181 193 -200 225 -5 9 -37 62 -70 116 -63 103 -81 138 -110 213
-10 25 -24 59 -31 77 -8 17 -14 38 -14 46 0 8 -7 28 -15 43 -8 16 -15 42 -15
57 0 16 -5 37 -11 49 -6 11 -15 52 -19 92 -5 39 -14 116 -21 172 -24 191 24
500 115 738 61 160 183 380 293 529 67 90 96 107 108 65z m1468 -393 c20 -38
21 -53 19 -385 -3 -411 -6 -466 -33 -473 -18 -5 -19 5 -19 256 0 144 -4 309
-9 367 -6 58 -13 152 -17 210 l-6 105 22 -20 c12 -11 31 -38 43 -60z m-825
-101 l22 -15 0 -424 c0 -233 -4 -426 -8 -429 -13 -8 -28 6 -65 60 -79 114
-117 240 -117 382 1 146 23 251 79 363 45 90 48 92 89 63z m11992 -385 c0 -12
-29 -24 -37 -16 -3 4 -3 13 0 21 6 16 37 11 37 -5z m27 -61 c-3 -8 -6 -5 -6 6
-1 11 2 17 5 13 3 -3 4 -12 1 -19z m-46 -32 c5 3 9 -2 9 -11 0 -26 -29 -29
-53 -7 l-23 21 2 -42 c2 -53 -4 -77 -19 -77 -7 0 -25 -21 -42 -45 -29 -43 -65
-59 -79 -36 -10 16 -86 51 -111 51 -34 0 -40 16 -12 34 21 14 26 14 58 -2 19
-10 46 -26 61 -36 21 -14 31 -15 48 -6 26 14 22 33 -9 40 -31 7 -27 25 7 26
36 0 56 12 44 27 -10 14 10 60 24 55 5 -2 10 7 12 18 3 21 3 21 39 3 20 -10
40 -16 44 -13z m-234 0 c-3 -6 -10 -10 -16 -8 -7 1 -10 -2 -7 -7 3 -5 -1 -14
-8 -20 -20 -17 -27 18 -8 41 15 18 46 13 39 -6z m-9684 -83 c-4 -10 -9 -11
-19 -2 -11 9 -12 15 -3 26 14 17 31 -1 22 -24z m8312 -231 c50 -6 133 -16 185
-22 164 -19 173 -20 255 -36 250 -50 548 -138 720 -214 22 -10 84 -36 138 -59
303 -129 662 -357 932 -591 148 -129 415 -413 415 -442 0 -12 -184 -218 -350
-393 -31 -33 -99 -107 -150 -165 -51 -58 -165 -181 -254 -275 -89 -93 -195
-205 -236 -249 -296 -317 -527 -554 -897 -921 -501 -498 -682 -674 -948 -920
-72 -66 -164 -152 -205 -191 -103 -97 -423 -384 -485 -435 -16 -13 -52 -45
-80 -70 -27 -25 -129 -112 -225 -194 -96 -82 -218 -185 -270 -230 -207 -175
-538 -442 -805 -646 -104 -80 -224 -172 -265 -203 -185 -142 -349 -265 -395
-296 -68 -45 -197 -133 -335 -229 -481 -333 -848 -567 -1385 -885 -44 -26 -87
-51 -95 -56 -210 -130 -490 -290 -730 -418 -36 -19 -105 -57 -155 -85 -107
-60 -889 -454 -1025 -516 -52 -24 -138 -64 -190 -89 -234 -110 -266 -124 -495
-222 -183 -78 -337 -142 -535 -221 -69 -27 -134 -54 -145 -58 -29 -13 -186
-68 -210 -74 -11 -3 -45 -15 -75 -26 -51 -20 -56 -20 -67 -4 -10 13 -13 145
-13 578 0 616 -3 586 62 619 18 9 67 40 108 69 41 29 154 106 250 172 154 105
269 186 350 246 14 10 97 72 184 136 290 215 581 435 812 615 54 43 128 101
164 129 36 28 81 63 100 79 19 16 80 64 135 108 55 44 134 108 175 141 41 34
78 61 81 61 14 0 38 -52 88 -190 120 -333 164 -435 183 -424 7 4 67 44 133 89
280 189 274 185 285 224 5 20 14 128 20 240 6 112 15 234 20 270 5 36 10 120
10 186 0 93 4 126 16 143 20 29 174 151 629 497 65 50 141 110 168 134 l49 45
19 -25 c10 -13 21 -33 25 -44 3 -11 12 -33 19 -50 41 -87 174 -443 254 -679
50 -148 107 -310 127 -360 51 -132 74 -188 84 -211 5 -11 18 -41 30 -67 20
-47 49 -64 65 -38 4 6 50 40 103 76 202 135 512 356 550 392 18 18 23 30 18
50 -3 15 -10 63 -16 107 -6 44 -15 114 -21 155 -6 41 -15 118 -19 170 -12 140
-30 303 -46 410 -8 53 -14 118 -14 145 0 28 -5 68 -10 90 -6 22 -15 92 -20
155 -5 63 -14 151 -19 195 -6 44 -10 126 -10 182 -1 104 -1 106 45 143 86 70
197 158 284 225 57 44 160 124 229 177 69 54 207 159 306 235 99 75 268 207
375 292 229 183 251 200 341 266 101 74 311 236 334 258 11 11 36 31 55 45 19
14 46 36 60 48 23 21 113 68 188 100 169 71 339 202 473 364 118 143 296 401
368 533 16 29 50 87 75 131 26 43 58 99 70 125 13 25 54 109 93 186 69 137
107 217 173 360 56 122 81 178 95 214 56 151 79 214 96 266 52 157 52 161 2
182 -34 14 -67 14 -308 4 -341 -15 -495 -26 -565 -39 -30 -6 -109 -18 -175
-27 -66 -9 -149 -22 -185 -30 -190 -39 -229 -48 -275 -60 -360 -93 -586 -184
-757 -307 -96 -70 -138 -107 -318 -282 -69 -67 -152 -144 -184 -171 -33 -28
-71 -61 -85 -74 -14 -13 -147 -129 -296 -257 -148 -129 -304 -264 -345 -300
-41 -37 -104 -93 -140 -124 -36 -31 -103 -90 -149 -131 -47 -41 -121 -105
-165 -144 -45 -38 -140 -121 -211 -185 -72 -63 -157 -137 -190 -165 -32 -27
-82 -71 -109 -96 -72 -65 -277 -229 -286 -229 -4 0 -35 14 -68 30 -34 17 -63
30 -66 30 -3 0 -44 18 -90 40 -46 21 -112 51 -146 65 -33 14 -91 39 -128 56
-37 17 -103 46 -147 64 -82 33 -127 53 -250 110 -38 18 -128 58 -199 89 -71
32 -157 70 -190 86 -255 117 -404 180 -429 180 -17 0 -94 -58 -193 -146 -38
-34 -96 -84 -129 -112 -33 -27 -85 -74 -115 -102 -30 -29 -74 -68 -98 -88 -57
-46 -70 -71 -48 -88 9 -6 56 -50 105 -95 48 -46 98 -93 112 -104 74 -61 209
-172 624 -518 309 -257 460 -389 460 -401 0 -18 -66 -81 -250 -241 -38 -33
-88 -76 -110 -95 -22 -20 -74 -63 -117 -98 -42 -34 -98 -82 -125 -107 -72 -68
-68 -69 -243 12 -89 41 -99 45 -255 113 -66 29 -172 77 -235 107 -177 85 -158
88 -346 -63 -192 -154 -296 -242 -307 -260 -12 -20 154 -172 501 -457 59 -48
124 -102 145 -119 20 -17 37 -39 37 -48 0 -20 -174 -183 -350 -330 -30 -25
-77 -65 -105 -90 -29 -25 -127 -108 -220 -185 -92 -77 -200 -167 -239 -200
-40 -33 -94 -78 -120 -100 -51 -42 -183 -152 -226 -189 -216 -184 -394 -337
-428 -370 -35 -34 -44 -38 -52 -26 -16 25 7 416 50 852 5 47 13 104 19 125 6
21 11 55 11 76 0 21 6 66 14 100 17 73 43 192 49 227 5 26 53 209 82 315 9 33
23 83 30 110 34 128 135 406 222 609 96 226 280 586 365 715 10 14 22 35 28
46 14 27 22 41 123 190 157 232 319 448 453 604 136 157 539 551 668 653 28
22 67 54 86 72 92 82 359 286 538 411 142 99 224 155 227 155 2 0 33 20 68 44
81 55 392 246 402 246 1 0 45 25 96 55 146 86 761 385 793 385 3 0 29 11 58
24 80 38 240 103 368 151 126 47 557 193 605 205 17 4 57 15 90 25 101 28 206
56 290 76 44 11 96 23 115 28 123 32 222 56 360 86 41 9 103 23 137 31 34 8
73 14 88 14 14 0 54 6 88 14 108 25 242 46 288 46 24 0 60 4 79 10 38 10 215
28 400 40 161 11 956 4 1065 -8z m6701 -306 c25 -19 16 -26 -86 -65 -47 -18
-98 -39 -115 -46 -16 -7 -50 -21 -75 -30 -25 -10 -54 -21 -65 -26 -11 -5 -45
-18 -75 -29 -30 -11 -64 -25 -75 -30 -11 -5 -36 -15 -55 -23 -19 -8 -75 -32
-125 -52 -49 -21 -135 -56 -190 -77 -55 -21 -115 -46 -132 -55 -41 -22 -49
-15 -72 63 -14 48 -22 61 -45 69 -22 8 -35 5 -64 -12 l-37 -21 1 -104 c1 -124
18 -190 81 -308 66 -124 116 -189 186 -243 80 -63 190 -127 217 -127 27 0 36
-25 19 -57 -7 -13 -124 -134 -258 -266 -135 -133 -326 -322 -425 -420 l-180
-179 -260 6 c-385 10 -356 13 -427 -46 -24 -20 -93 -75 -154 -122 -60 -47
-130 -102 -155 -121 -90 -71 -156 -120 -230 -172 -41 -29 -131 -92 -199 -141
-68 -48 -134 -94 -147 -102 -57 -37 -209 -145 -379 -268 -74 -54 -309 -230
-365 -273 -30 -23 -169 -130 -309 -238 -388 -300 -510 -391 -521 -391 -5 0
-10 -3 -10 -7 -1 -5 -24 -24 -51 -43 -28 -19 -108 -77 -177 -129 -167 -123
-280 -206 -358 -261 -34 -25 -114 -82 -176 -126 -62 -45 -133 -94 -158 -110
-25 -16 -70 -47 -100 -70 -51 -37 -310 -216 -348 -239 -9 -5 -21 -14 -26 -18
-72 -53 -139 -99 -173 -118 -23 -13 -86 -51 -140 -84 -103 -63 -124 -75 -194
-114 -24 -13 -46 -27 -49 -31 -3 -3 -12 -9 -20 -13 -8 -4 -23 -12 -32 -19 -9
-7 -21 -9 -25 -4 -4 4 0 13 10 20 9 7 17 21 17 30 0 10 8 16 23 16 12 0 28 4
36 9 13 8 13 12 1 26 -12 15 -12 19 5 31 10 8 22 14 27 14 4 0 8 8 8 18 0 10
16 26 36 37 21 11 41 31 46 47 6 16 16 28 23 28 7 0 30 21 51 46 22 25 62 68
89 97 28 29 59 66 70 82 29 48 177 195 195 195 9 0 22 11 28 24 6 14 40 56 76
94 36 38 66 72 66 75 0 4 30 35 67 69 103 96 164 159 193 200 15 20 51 57 79
82 46 38 93 88 151 160 8 10 40 43 70 73 141 139 170 168 170 174 0 3 116 123
258 266 335 339 308 308 288 329 -18 18 -17 35 2 42 7 2 12 -7 12 -22 0 -31
11 -33 34 -7 19 21 14 41 -10 41 -8 0 -14 5 -14 10 0 13 33 13 47 -1 8 -8 14
-5 23 12 7 13 22 35 35 49 33 37 37 58 16 77 -11 9 -17 22 -14 29 6 17 35 18
50 3 14 -14 43 -5 43 13 0 8 -27 42 -61 76 l-60 63 38 -7 c45 -8 55 -13 48
-24 -3 -4 2 -13 10 -20 12 -10 16 -9 22 6 3 11 10 21 14 24 7 5 12 34 10 58
-2 19 -18 14 -24 -8 -3 -11 -12 -20 -20 -20 -21 0 -30 42 -12 53 8 4 15 15 15
23 0 9 6 22 13 29 29 33 37 45 37 55 0 5 11 10 25 10 18 0 25 5 25 20 0 11 -4
20 -10 20 -5 0 -19 -9 -30 -20 -11 -11 -22 -20 -24 -20 -12 0 -146 -143 -146
-156 0 -8 -8 -14 -18 -14 -10 0 -33 -16 -52 -35 -19 -19 -41 -35 -47 -35 -7 0
-13 -4 -13 -10 0 -5 -4 -10 -10 -10 -5 0 -31 -23 -57 -51 -26 -28 -70 -72 -98
-97 -65 -62 -442 -432 -669 -657 -100 -99 -218 -214 -262 -255 -45 -41 -134
-124 -199 -185 -65 -60 -135 -123 -157 -140 -21 -16 -38 -32 -38 -36 0 -7
-108 -107 -310 -284 -26 -22 -66 -56 -89 -75 -24 -19 -70 -60 -101 -90 -32
-30 -86 -75 -119 -100 -34 -25 -72 -54 -84 -66 -12 -11 -54 -42 -93 -67 -39
-26 -77 -54 -84 -62 -13 -15 -50 -21 -50 -7 0 8 76 81 225 217 60 55 119 109
130 121 11 11 92 85 180 164 88 78 230 211 316 294 85 83 222 215 305 293 266
253 899 893 1094 1108 30 33 96 103 146 155 120 126 274 288 359 379 39 41 88
93 110 115 23 23 68 73 102 111 33 39 87 98 119 131 33 33 118 121 189 195
135 140 255 270 391 424 105 119 164 184 249 275 39 41 88 95 110 120 48 56
181 205 216 241 31 32 43 36 319 90 118 23 233 45 255 49 37 8 118 25 260 55
33 7 94 20 135 29 41 9 134 29 205 45 72 16 195 43 275 61 80 18 163 36 185
40 22 4 58 12 80 18 38 10 98 22 265 56 41 8 120 22 175 31 55 9 134 22 175
30 193 36 242 45 340 59 58 9 121 17 140 19 19 2 40 5 46 5 5 1 19 -4 30 -12z
m-14250 -343 c7 -10 14 -26 14 -37 0 -15 3 -16 14 -7 8 7 17 8 19 4 6 -10 48
-10 64 0 7 4 14 4 17 -1 5 -9 47 -9 63 1 7 4 15 2 18 -4 5 -7 18 -1 37 18 21
19 32 24 35 15 4 -10 8 -10 21 0 12 11 16 11 20 0 3 -10 7 -10 20 0 12 11 16
11 20 0 3 -10 7 -10 20 0 12 11 16 11 20 0 3 -10 7 -10 20 0 11 10 16 10 19 1
2 -7 12 -9 21 -6 12 3 13 2 4 -4 -7 -5 -58 -9 -113 -8 -88 1 -102 -1 -113 -17
-12 -17 -27 -19 -147 -17 -74 0 -140 5 -146 11 -7 6 -19 8 -27 5 -8 -3 -22 3
-32 14 -14 16 -15 19 -2 19 9 0 21 7 28 15 17 21 70 19 86 -2z m932 -24 c11
-45 26 -40 -125 -41 -83 -1 -89 1 -100 23 -10 19 -9 27 4 41 12 14 33 17 113
16 l98 0 10 -39z m9412 -9 c0 -6 6 -10 13 -10 19 0 50 -36 45 -51 -3 -8 -18 1
-40 24 -20 20 -41 37 -47 37 -6 0 -11 7 -11 15 0 13 4 14 20 5 11 -6 20 -15
20 -20z m-9217 -33 l37 0 0 -48 0 -49 -109 0 c-118 0 -121 1 -121 59 0 45 17
53 90 45 36 -4 82 -7 103 -7z m-1642 -28 c4 -7 4 -22 0 -33 -5 -12 -7 -29 -6
-38 2 -10 -3 -18 -10 -18 -8 0 -16 -8 -19 -18 -6 -19 -36 -26 -36 -9 0 5 -8 6
-17 3 -13 -5 -10 0 7 19 29 31 38 90 12 80 -13 -5 -13 -2 2 14 19 21 54 20 67
0z m8099 -12 c0 -13 -36 -28 -190 -82 -83 -29 -95 -36 -93 -55 2 -12 -2 -30
-8 -41 -13 -25 -34 -12 -43 27 l-7 26 -82 -7 c-45 -4 -85 -9 -89 -12 -14 -8
-8 -43 18 -121 43 -127 59 -154 138 -232 73 -72 76 -76 72 -116 -7 -72 -107
-250 -332 -589 -237 -359 -295 -424 -424 -475 -43 -17 -55 -18 -62 -8 -5 7 -7
143 -6 303 l3 289 -70 13 c-38 6 -99 12 -134 12 -90 1 -243 21 -260 35 -15 12
-11 114 9 224 33 186 42 250 39 267 -4 21 -3 20 -164 42 -82 11 -82 29 -3 71
35 18 110 58 168 89 132 69 271 116 530 178 30 7 82 20 115 29 33 9 94 24 135
32 41 8 107 22 145 30 39 8 95 19 125 24 30 5 71 14 90 20 19 5 53 10 75 10
22 0 63 7 90 14 66 19 215 21 215 3z m2910 -79 c0 -5 6 -8 14 -8 8 0 18 -9 21
-21 4 -11 18 -24 31 -29 13 -5 24 -14 24 -20 0 -16 -15 -12 -35 10 -10 11 -24
20 -32 20 -7 0 -13 6 -13 13 0 7 -16 27 -35 46 -19 18 -32 37 -29 43 6 10 53
-38 54 -54z m-10745 -71 c11 -2 25 -1 30 3 6 4 56 7 112 7 89 0 102 -3 106
-18 5 -20 -14 -41 -35 -38 -7 1 -42 1 -77 0 -51 -1 -62 -4 -58 -16 4 -8 2 -17
-4 -20 -5 -4 -7 -11 -4 -16 4 -5 -4 -9 -17 -9 -18 0 -20 2 -8 10 8 5 10 10 4
10 -6 0 -14 14 -18 31 -4 23 -10 30 -22 25 -8 -3 -45 -9 -81 -12 -74 -7 -95 6
-65 39 14 16 26 18 67 14 27 -3 59 -8 70 -10z m320 -47 c5 8 10 8 20 0 10 -8
15 -8 20 0 5 8 10 8 20 0 10 -8 15 -8 20 0 5 8 10 8 20 0 9 -8 15 -8 20 0 3 6
12 7 18 3 13 -8 18 -10 45 -12 13 -1 14 -3 3 -10 -7 -5 -11 -13 -7 -19 4 -7
-34 -11 -116 -11 -122 0 -123 0 -123 24 0 13 3 21 7 19 4 -2 10 0 13 6 5 8 11
8 20 0 10 -8 15 -8 20 0z m-849 -131 c-6 -81 -16 -70 -15 17 0 57 3 73 9 57 5
-13 8 -46 6 -74z m1528 75 c5 -14 4 -15 -9 -4 -17 14 -19 20 -6 20 5 0 12 -7
15 -16z m80 0 c5 -14 4 -15 -9 -4 -17 14 -19 20 -6 20 5 0 12 -7 15 -16z m80
0 c5 -14 4 -15 -9 -4 -17 14 -19 20 -6 20 5 0 12 -7 15 -16z m-1220 -1 c3 -4
17 -8 29 -10 70 -9 81 -24 54 -68 -17 -29 -118 -28 -162 0 -49 32 -72 64 -58
79 9 8 128 8 137 -1z m1580 -2 c3 -4 -5 -18 -18 -30 -18 -17 -26 -19 -31 -10
-6 8 -4 10 5 4 10 -6 12 -4 7 9 -4 10 -5 22 -1 27 7 11 31 12 38 0z m-791 -63
c2 -7 0 -20 -4 -30 -7 -13 -26 -16 -111 -16 -140 0 -140 0 -132 -14 6 -10 4
-10 -8 0 -12 9 -18 10 -23 2 -5 -8 -10 -8 -20 0 -10 8 -15 8 -20 0 -5 -8 -10
-8 -20 0 -10 8 -15 8 -20 0 -5 -8 -10 -8 -20 0 -10 8 -15 8 -20 0 -5 -8 -10
-8 -20 0 -9 7 -15 8 -19 1 -4 -6 -14 -7 -23 -4 -12 5 -15 2 -11 -8 3 -8 2 -24
-3 -37 -8 -21 -14 -23 -69 -20 -67 3 -80 15 -22 20 31 3 37 6 36 26 0 16 4 22
16 20 19 -3 50 19 50 36 0 6 -5 4 -11 -4 -8 -12 -10 -11 -7 5 3 18 13 20 123
25 243 12 353 11 358 -2z m43 -47 c8 7 14 7 19 -1 5 -8 10 -8 20 0 10 8 15 8
20 0 5 -8 10 -8 20 0 10 8 15 8 20 0 5 -8 10 -8 20 0 10 8 15 8 20 0 5 -8 11
-7 23 2 12 10 14 10 8 1 -8 -14 -3 -15 139 -15 109 0 122 -2 105 -23 -10 -12
-36 -15 -114 -15 -68 0 -107 -4 -115 -12 -11 -11 -12 -10 -6 1 6 10 4 12 -6 5
-17 -11 -51 -13 -64 -3 -5 3 -40 6 -78 6 -74 0 -72 -1 -81 30 -6 19 -4 22 10
16 13 -5 15 -3 9 8 -6 11 -5 12 5 2 9 -9 17 -9 26 -2z m-287 -90 c2 -1 -2 -8
-9 -16 -14 -17 -105 -22 -95 -5 3 6 -2 11 -12 12 -10 0 5 4 32 7 42 6 63 6 84
2z m331 -11 c18 -2 13 -5 -18 -12 -45 -10 -72 -6 -72 11 0 5 15 8 33 6 17 -2
43 -4 57 -5z m5145 -332 c26 -23 26 -23 15 -98 -7 -41 -18 -95 -26 -119 -17
-51 -22 -257 -7 -272 14 -14 117 -38 207 -49 129 -15 226 -36 242 -52 19 -19
37 -142 28 -188 -10 -48 -11 -53 -12 -71 -1 -8 -39 -40 -84 -69 -113 -75 -361
-258 -494 -367 -113 -92 -302 -243 -352 -281 -31 -24 -106 -83 -165 -130 -60
-48 -161 -128 -225 -179 -129 -102 -216 -172 -271 -219 -20 -17 -65 -52 -101
-79 -36 -27 -71 -55 -79 -63 -7 -7 -50 -41 -95 -74 -44 -34 -122 -96 -172
-138 -50 -41 -198 -158 -328 -260 -131 -102 -272 -213 -314 -248 -42 -34 -95
-75 -117 -90 -22 -15 -81 -61 -131 -102 -91 -74 -192 -154 -329 -260 -40 -30
-129 -100 -200 -155 -71 -55 -184 -143 -251 -195 -68 -52 -176 -138 -241 -192
-203 -166 -258 -208 -268 -205 -5 2 -23 31 -40 64 -34 69 -158 265 -222 350
-24 31 -43 64 -43 73 0 10 17 29 38 43 20 14 61 47 89 74 29 26 67 59 85 73
50 38 149 129 188 171 20 22 40 39 46 39 6 0 64 52 128 115 64 63 123 115 130
115 8 0 47 32 87 71 41 40 94 88 119 107 25 20 74 66 110 102 36 37 72 71 81
76 26 14 93 71 177 151 43 40 80 73 85 73 10 0 97 62 132 93 15 14 35 31 44
39 9 8 26 25 37 39 12 13 56 49 98 79 43 30 90 66 105 80 15 14 58 52 97 85
38 33 83 75 101 92 17 18 35 33 40 33 5 0 29 21 55 48 26 26 68 66 95 89 26
23 71 62 98 86 28 23 61 50 75 59 14 8 54 41 90 73 36 31 89 78 118 103 30 26
77 70 106 97 28 28 67 62 86 76 54 41 138 128 145 150 4 10 12 19 20 19 14 0
67 41 99 79 23 25 26 28 101 95 27 24 47 47 43 51 -7 8 -48 -30 -48 -45 0 -5
-4 -10 -10 -10 -13 0 -123 -84 -174 -133 -23 -22 -63 -55 -89 -73 -27 -18 -61
-46 -76 -61 -44 -44 -141 -126 -170 -144 -14 -9 -42 -34 -61 -55 -19 -22 -49
-48 -67 -59 -17 -11 -59 -41 -92 -67 -34 -27 -66 -48 -71 -48 -6 0 -15 -11
-20 -25 -5 -14 -21 -27 -36 -31 -15 -4 -52 -24 -83 -44 -55 -37 -82 -43 -58
-14 6 9 39 41 71 72 33 32 100 98 150 147 50 50 107 103 126 119 19 15 67 58
105 95 39 37 108 99 155 138 47 39 96 83 110 98 14 15 61 57 105 93 44 37 82
69 85 72 5 7 184 167 300 270 40 36 78 70 84 75 6 6 34 30 61 54 28 25 100 91
160 147 61 56 133 121 160 144 28 23 85 75 129 114 105 95 133 105 181 64z
m-8888 -664 c-3 -3 -12 -4 -19 -1 -8 3 -5 6 6 6 11 1 17 -2 13 -5z m248 -22
c39 -15 83 -36 99 -47 l28 -19 -22 -18 c-12 -10 -33 -18 -46 -18 -13 0 -38 -6
-56 -14 -18 -8 -51 -21 -73 -29 -22 -8 -47 -18 -55 -21 -39 -15 -177 -97 -295
-174 -124 -82 -151 -102 -215 -164 -16 -16 -31 -28 -35 -28 -14 0 -107 -101
-167 -180 -92 -123 -131 -184 -178 -280 -23 -47 -46 -93 -51 -104 -10 -18 -23
-58 -55 -176 -35 -131 -36 -369 -1 -501 57 -215 138 -356 305 -530 125 -131
249 -221 446 -323 114 -59 395 -166 439 -166 12 0 33 -9 46 -19 l23 -18 -3
-246 c-2 -135 -7 -249 -11 -253 -8 -7 -90 7 -168 31 -153 45 -196 59 -205 65
-5 4 -32 15 -60 25 -148 54 -362 176 -530 304 -133 101 -323 315 -397 447 -38
67 -58 107 -118 234 -4 8 -17 49 -29 90 -12 41 -26 89 -31 105 -34 106 -50
419 -30 565 29 216 71 352 175 566 136 281 407 576 715 779 195 128 227 140
227 85 0 -39 8 -46 38 -32 14 7 41 12 60 12 24 0 39 6 47 20 16 26 26 25 48
-2 16 -20 21 -21 42 -10 17 9 31 10 50 3 25 -10 38 -6 38 11 0 4 -7 8 -16 8
-9 0 -27 11 -40 25 -29 31 -25 31 61 -3z m2535 -367 c-7 -8 -16 -12 -21 -9
-13 8 -1 24 18 24 13 0 13 -3 3 -15z m41 -96 c-9 -23 -10 -22 -10 11 -1 23 2
31 9 24 7 -7 7 -19 1 -35z m-11 -34 c0 -2 -7 -8 -15 -15 -12 -10 -15 -10 -15
2 0 8 7 15 15 15 8 0 15 -1 15 -2z m-2430 -790 c0 -736 0 -745 -20 -745 -24 0
-223 86 -265 114 -49 33 -155 138 -194 191 -62 85 -84 142 -107 275 -38 215
53 480 229 667 86 90 143 135 251 200 118 70 106 152 106 -702z m2390 699 c0
-8 -5 -12 -10 -9 -6 4 -8 11 -5 16 9 14 15 11 15 -7z m-48 -76 c-8 -8 -9 -4
-5 13 4 13 8 18 11 10 2 -7 -1 -18 -6 -23z m10133 -138 c-5 -8 -11 -8 -17 -2
-6 6 -7 16 -3 22 5 8 11 8 17 2 6 -6 7 -16 3 -22z m-10410 -89 c3 -5 1 -12 -5
-16 -5 -3 -10 1 -10 9 0 18 6 21 15 7z m10188 -66 c-19 -26 -33 -32 -33 -14 0
12 29 38 43 39 4 0 0 -11 -10 -25z m71 -30 c3 -8 1 -15 -4 -15 -6 0 -10 7 -10
15 0 8 2 15 4 15 2 0 6 -7 10 -15z m36 -39 c0 -3 -4 -8 -10 -11 -5 -3 -10 -1
-10 4 0 6 5 11 10 11 6 0 10 -2 10 -4z m1685 -456 c375 -29 545 -41 685 -50
85 -6 187 -14 225 -19 39 -6 124 -13 190 -16 66 -4 183 -13 260 -21 77 -8 226
-21 330 -29 105 -8 208 -19 230 -24 22 -6 63 -11 90 -11 44 0 94 -8 298 -50
69 -14 161 -41 171 -50 23 -22 -90 -48 -267 -61 -296 -20 -383 -28 -417 -38
-19 -5 -81 -11 -138 -14 -119 -6 -118 -7 -137 103 l-10 65 -46 3 c-43 3 -46 1
-62 -33 -23 -48 -24 -237 -1 -327 51 -203 107 -295 251 -409 45 -37 61 -55 55
-65 -16 -29 -163 -140 -362 -273 -113 -76 -261 -176 -330 -223 -69 -46 -163
-110 -209 -141 -88 -60 -110 -66 -186 -46 -22 5 -74 14 -115 19 -41 5 -100 14
-130 20 -30 7 -89 10 -130 8 -70 -4 -80 -7 -153 -53 -120 -77 -120 -77 -219
-134 -202 -118 -381 -212 -568 -299 -119 -55 -205 -94 -240 -110 -19 -8 -67
-30 -107 -49 -40 -18 -75 -33 -78 -33 -10 0 -356 -175 -453 -229 -48 -26 -118
-65 -157 -86 -38 -21 -82 -46 -96 -56 -15 -10 -37 -23 -51 -28 -13 -5 -66 -34
-116 -65 -51 -31 -95 -56 -97 -56 -2 0 -53 -29 -112 -64 -243 -144 -713 -379
-895 -447 -43 -15 -112 -45 -155 -65 -115 -53 -128 -59 -253 -109 -63 -25
-137 -53 -165 -62 -47 -14 -217 -87 -278 -118 -16 -8 -37 -15 -47 -15 -10 0
-31 -7 -47 -15 -15 -8 -62 -28 -103 -46 -41 -17 -84 -35 -95 -40 -11 -5 -44
-17 -72 -29 -29 -11 -85 -36 -125 -56 -40 -20 -102 -48 -138 -61 -36 -13 -83
-32 -105 -42 -22 -10 -51 -22 -65 -26 -14 -4 -34 -14 -45 -21 -11 -8 -29 -14
-42 -14 -12 0 -24 -4 -27 -9 -3 -5 -34 -20 -68 -34 -35 -14 -90 -37 -123 -52
-76 -33 -85 -37 -170 -69 -38 -15 -88 -36 -110 -47 -22 -10 -45 -19 -52 -19
-6 0 -38 -13 -70 -29 -32 -17 -96 -44 -143 -61 -47 -17 -98 -38 -115 -45 -39
-18 -108 -46 -225 -91 -52 -20 -106 -42 -120 -49 -33 -18 -180 -75 -192 -75
-6 0 -106 -38 -224 -85 -117 -47 -216 -85 -219 -85 -3 0 -27 -9 -53 -21 -79
-34 -86 -37 -132 -52 -56 -18 -268 -99 -375 -143 -44 -18 -118 -45 -165 -60
-47 -15 -107 -38 -134 -51 -28 -12 -56 -23 -64 -23 -7 0 -37 -9 -65 -21 -29
-12 -61 -25 -72 -29 -35 -14 -239 -82 -275 -92 -19 -5 -71 -23 -116 -39 -44
-16 -88 -29 -97 -29 -10 0 -25 -4 -35 -10 -37 -21 -352 -130 -377 -130 -7 0
-18 -7 -25 -15 -7 -8 -27 -15 -45 -15 -18 0 -50 -7 -71 -16 -22 -9 -61 -16
-89 -16 -48 0 -60 2 -95 15 -8 3 -28 8 -45 12 -16 4 -38 14 -47 22 -20 17 -24
58 -8 68 6 3 10 13 10 21 0 10 -5 12 -12 8 -10 -6 -10 -4 -2 7 5 8 11 29 13
47 2 31 -8 39 -42 33 -5 -1 -7 9 -5 21 3 23 -5 26 -41 17 -8 -2 -16 3 -18 12
-5 19 24 52 38 44 5 -4 17 -1 26 5 31 19 -81 0 -154 -26 -36 -13 -76 -24 -88
-24 -21 0 -82 -21 -115 -39 -9 -5 -31 -12 -50 -16 -19 -4 -44 -14 -55 -21 -11
-8 -30 -14 -42 -14 -13 0 -31 -4 -41 -9 -21 -12 -165 -60 -212 -70 -70 -16
-150 -43 -155 -52 -4 -5 -21 -9 -39 -9 -17 0 -36 -4 -42 -9 -5 -6 -27 -14 -49
-20 -22 -5 -53 -14 -70 -20 -111 -37 -164 -40 -104 -5 19 11 151 70 294 132
143 61 287 124 320 140 68 33 147 67 490 210 554 232 842 350 930 381 33 12
69 25 80 30 11 5 70 29 130 54 296 123 554 230 590 246 69 32 304 131 309 131
6 0 331 138 416 178 36 16 124 54 195 85 72 30 173 75 225 100 52 25 142 66
200 92 266 118 950 456 1195 590 88 49 180 99 204 112 24 13 62 34 85 47 23
13 120 67 216 121 177 99 546 319 675 403 39 25 153 96 255 157 102 62 255
160 340 217 288 193 505 341 582 397 42 31 86 63 98 71 38 26 215 156 235 173
11 9 40 31 64 49 24 18 69 52 100 76 31 23 68 50 82 60 79 53 520 389 639 487
40 33 107 87 149 119 42 33 114 91 161 131 47 39 106 87 131 106 91 67 451
361 583 476 l71 62 75 0 c41 0 134 -4 205 -9z m-15449 -1926 c36 -36 79 -70
95 -76 22 -8 29 -16 29 -37 0 -14 -6 -36 -14 -47 -8 -11 -27 -43 -42 -70 -15
-27 -40 -71 -55 -99 -16 -27 -33 -59 -38 -70 -77 -170 -77 -171 -122 -370 -29
-130 -32 -447 -5 -555 31 -123 66 -231 97 -298 16 -35 29 -66 29 -70 1 -13 85
-140 143 -216 72 -93 218 -232 324 -308 70 -51 201 -121 343 -185 68 -31 144
-58 260 -93 164 -50 190 -57 265 -75 39 -10 76 -22 83 -28 11 -8 13 -59 10
-241 l-3 -231 -25 -4 c-24 -3 -58 3 -205 35 -74 17 -339 97 -390 119 -16 7
-66 27 -110 46 -75 31 -111 49 -244 121 -29 16 -88 55 -129 86 -41 31 -88 67
-105 79 -110 81 -314 309 -391 438 -138 232 -177 332 -240 625 -68 317 -60
566 30 874 8 26 14 54 14 60 0 10 44 130 73 200 53 126 237 456 254 456 2 0
33 -30 69 -66z m5413 27 c7 -5 16 -32 19 -59 4 -46 2 -53 -24 -76 -16 -14 -35
-26 -43 -26 -15 0 -48 -27 -131 -103 -68 -63 -141 -123 -200 -162 -24 -16
-114 -88 -200 -158 -85 -71 -171 -141 -190 -156 -120 -97 -166 -136 -173 -148
-4 -7 -13 -13 -20 -13 -7 0 -29 -15 -49 -33 -20 -17 -47 -41 -60 -52 -14 -11
-53 -45 -89 -75 -35 -30 -68 -58 -74 -62 -5 -4 -45 -35 -87 -68 -43 -33 -81
-60 -84 -60 -4 0 -39 -25 -79 -55 -41 -30 -77 -55 -81 -55 -4 0 -26 -16 -50
-35 -23 -19 -45 -35 -48 -35 -14 0 -118 -73 -123 -86 -3 -8 -14 -14 -24 -14
-17 0 -18 3 -7 20 7 11 18 20 25 20 7 0 13 4 13 9 0 10 170 160 255 225 33 25
92 73 130 106 39 33 102 86 140 117 39 32 122 102 186 158 64 55 194 165 289
245 95 80 208 174 250 210 42 36 135 113 206 172 71 59 167 141 214 182 47 41
87 75 90 75 3 0 11 -3 19 -8z m-4564 -460 c186 -77 309 -118 475 -159 l75 -18
0 -595 0 -594 -50 2 c-239 8 -555 173 -678 353 -17 25 -34 47 -38 50 -23 17
-88 175 -113 276 -22 85 -22 333 0 434 31 149 76 264 122 312 l26 28 50 -28
c28 -16 87 -43 131 -61z m15008 -143 c42 -31 702 -592 738 -627 28 -28 169
-153 197 -174 15 -12 65 -55 112 -97 47 -41 119 -104 159 -140 41 -36 79 -70
85 -75 6 -6 68 -61 139 -124 122 -108 161 -151 137 -151 -17 0 -223 99 -430
206 -117 61 -143 73 -265 120 -38 14 -74 32 -78 38 -10 15 -1 77 18 112 23 45
20 82 -9 90 -36 9 -102 -13 -133 -45 -34 -34 -89 -134 -117 -211 -28 -78 -27
-247 1 -350 11 -41 22 -82 24 -90 3 -12 -8 -15 -66 -14 -161 3 -519 44 -640
73 -54 13 -84 20 -220 51 -49 12 -164 39 -255 61 -91 22 -185 44 -210 50 -79
18 -79 29 -3 83 37 26 83 57 102 69 19 12 46 30 60 39 14 10 40 25 58 35 18
10 55 38 84 63 70 61 219 212 219 221 0 24 26 59 51 70 16 6 29 15 29 19 0 5
8 10 18 13 16 4 16 4 -1 12 -11 5 -24 2 -36 -9 -10 -9 -27 -16 -38 -16 -25 0
-39 -16 -48 -52 -4 -15 -12 -26 -17 -25 -6 1 -12 -6 -13 -16 -4 -25 -11 -31
-25 -22 -9 5 -9 10 -1 18 6 6 11 21 11 32 0 22 32 60 42 50 3 -3 8 12 12 33 5
36 8 39 38 38 31 -1 33 1 31 29 -1 16 -7 31 -13 33 -5 2 -10 11 -10 21 0 9 -9
24 -20 34 -11 9 -20 24 -20 32 0 8 -7 15 -15 15 -8 0 -15 9 -15 20 0 11 -7 23
-15 26 -8 4 -15 13 -15 22 0 18 -17 72 -37 119 -7 17 -13 36 -13 41 0 6 -11
32 -25 59 -42 77 -35 90 70 128 50 17 117 40 150 49 33 10 76 24 95 31 55 20
74 17 123 -17z m-417 -515 c-10 -10 -19 5 -10 18 6 11 8 11 12 0 2 -7 1 -15
-2 -18z m94 -29 c0 -8 -5 -12 -10 -9 -6 4 -8 11 -5 16 9 14 15 11 15 -7z m-17
-64 c3 -11 1 -18 -4 -14 -5 3 -9 0 -9 -5 0 -6 -9 -11 -20 -11 -23 0 -24 3 -8
30 16 26 34 26 41 0z m-11983 -369 c0 -6 -4 -13 -10 -16 -5 -3 -10 1 -10 9 0
9 5 16 10 16 6 0 10 -4 10 -9z m-30 -31 c0 -5 -4 -10 -10 -10 -5 0 -10 5 -10
10 0 6 5 10 10 10 6 0 10 -4 10 -10z m11124 -707 c2 -10 0 -335 -5 -723 -5
-388 -9 -862 -9 -1055 0 -339 -9 -540 -30 -655 -9 -53 -16 -73 -46 -133 -8
-16 -14 -33 -14 -39 0 -5 -17 -38 -37 -71 -94 -155 -238 -260 -463 -339 l-65
-23 -2475 -1 c-1826 0 -2496 -3 -2555 -12 -59 -8 -645 -11 -2283 -8 -1211 2
-2206 6 -2209 10 -3 3 2 6 11 6 10 0 32 6 49 14 47 21 286 93 417 126 19 5 71
18 115 30 44 11 98 25 120 31 22 6 63 17 90 24 73 21 120 34 220 60 50 13 135
35 190 50 55 15 132 35 170 45 88 23 418 116 465 130 58 18 129 38 250 71 63
17 129 35 145 39 45 13 133 37 195 54 70 18 221 61 280 80 25 8 72 21 105 31
33 9 71 20 85 25 14 5 59 18 100 30 41 12 86 25 100 30 14 5 52 16 85 25 33 9
101 30 150 45 243 76 589 180 700 211 119 34 448 133 510 154 22 7 67 21 100
30 33 10 92 28 130 40 39 13 124 40 190 60 66 21 152 48 190 60 39 13 88 28
110 35 111 32 416 126 590 181 55 17 120 37 145 44 25 8 72 22 105 33 33 11
94 30 135 42 41 12 129 39 195 61 66 21 145 46 175 55 30 9 73 23 95 30 37 12
180 56 300 92 28 8 82 25 120 37 39 13 124 40 190 60 66 21 152 47 190 59 39
13 95 30 125 39 30 9 116 36 190 60 164 54 379 122 560 177 153 47 234 73 335
105 39 12 117 37 175 54 143 44 461 145 595 191 61 20 178 58 260 84 83 26
168 53 190 61 22 7 67 20 100 30 33 9 69 20 80 25 34 14 63 11 69 -7z m507
-447 c14 -53 31 -1447 36 -2981 4 -1346 3 -1507 -11 -1568 -9 -38 -16 -83 -16
-100 0 -36 -29 -150 -61 -241 -28 -81 -91 -228 -104 -244 -5 -7 -14 -18 -20
-25 -5 -7 -19 -30 -30 -52 -17 -34 -83 -126 -134 -188 -14 -17 -186 -175 -257
-237 -29 -25 -153 -110 -161 -110 -2 0 -23 -13 -46 -28 -73 -50 -288 -152
-319 -152 -8 0 -18 -4 -24 -9 -16 -15 -203 -74 -350 -110 -135 -34 -458 -39
-2139 -38 -870 1 -1603 1 -1631 -1 l-50 -4 -37 -78 c-20 -43 -37 -83 -37 -88
0 -6 -18 -30 -40 -53 -22 -24 -40 -48 -40 -55 0 -14 -34 -37 -77 -52 -39 -13
-41 -4 -8 36 14 17 25 35 25 41 0 6 4 11 8 11 9 0 44 67 81 153 11 26 28 85
37 130 10 45 20 85 23 89 4 4 857 10 1897 12 2047 5 1907 1 2142 57 385 91
771 362 979 688 35 54 116 216 139 277 52 135 88 281 114 464 8 51 14 773 19
2267 6 1803 10 2195 21 2208 22 26 62 15 71 -19z m-8801 -772 c0 -8 -4 -14
-10 -14 -5 0 -10 9 -10 21 0 11 5 17 10 14 6 -3 10 -13 10 -21z m-38 -118 c-3
-5 -9 -1 -12 10 -4 10 -5 23 -2 28 3 5 9 1 12 -10 4 -10 5 -23 2 -28z m-1215
-112 c-3 -3 -12 -4 -19 -1 -8 3 -5 6 6 6 11 1 17 -2 13 -5z m4204 -2623 c165
-31 315 -101 452 -211 227 -182 350 -394 396 -681 24 -147 0 -343 -64 -519
-57 -158 -232 -373 -387 -475 -85 -57 -166 -101 -209 -113 -19 -6 -68 -21
-109 -33 -100 -30 -334 -32 -450 -5 -231 56 -382 136 -546 293 -222 212 -333
534 -291 843 17 129 31 190 52 237 8 17 15 36 15 42 0 19 60 123 114 195 109
147 227 249 374 324 214 111 428 144 653 103z m-3029 -468 c92 -35 179 -132
193 -215 8 -45 -2 -128 -15 -128 -5 0 -12 17 -16 38 -4 20 -13 46 -20 57 -8
11 -14 27 -14 37 0 10 -7 18 -15 18 -8 0 -15 3 -15 8 0 4 -17 18 -37 32 l-37
25 -415 1 c-229 1 -426 -2 -438 -7 -13 -5 -23 -15 -23 -23 0 -7 -6 -19 -14
-25 -7 -6 -17 -35 -21 -64 l-7 -52 -19 40 -18 40 -1 -67 c0 -38 -5 -70 -11
-74 -11 -6 -7 -62 6 -96 4 -9 0 -15 -8 -15 -17 0 -31 174 -21 266 10 92 54
168 114 194 41 17 176 24 502 25 265 2 313 0 350 -15z m6297 1 c113 -32 212
-134 225 -233 9 -68 -2 -149 -26 -188 -11 -18 -23 -33 -27 -33 -5 0 -11 42
-14 93 -6 107 -19 137 -85 187 l-45 35 -327 0 -327 0 -34 -30 c-19 -16 -43
-48 -53 -70 -9 -22 -26 -58 -37 -81 -10 -23 -19 -53 -19 -67 0 -14 -4 -28 -8
-31 -14 -8 -35 137 -27 184 15 86 109 200 185 225 37 11 204 21 393 23 129 2
181 -2 226 -14z m-8852 -1586 c278 -155 364 -191 583 -241 l95 -22 2020 -2
c2020 -3 2304 -5 2344 -18 28 -9 27 -29 -6 -80 -32 -49 -63 -74 -63 -50 0 12
-12 14 -77 7 -43 -4 -960 -7 -2038 -7 -1827 0 -1967 1 -2065 18 -144 24 -221
41 -247 55 -12 7 -37 12 -55 12 -19 0 -38 4 -44 9 -5 5 -34 16 -64 26 -30 10
-62 23 -70 30 -8 7 -49 30 -90 51 -80 41 -180 111 -180 125 0 5 -10 14 -23 20
-18 8 -48 45 -65 82 -6 11 2 9 45 -15z"/>
<path d="M10152 27121 c-10 -6 -10 -10 3 -21 14 -11 19 -10 38 8 l21 22 -24 0
c-14 0 -31 -4 -38 -9z"/>
<path d="M10918 19623 c7 -3 16 -2 19 1 4 3 -2 6 -13 5 -11 0 -14 -3 -6 -6z"/>
<path d="M15880 17935 c0 -8 2 -15 4 -15 2 0 6 7 10 15 3 8 1 15 -4 15 -6 0
-10 -7 -10 -15z"/>
<path d="M15816 17884 c-8 -21 -8 -24 4 -24 5 0 14 9 20 20 8 16 8 20 -4 20
-7 0 -17 -7 -20 -16z"/>
<path d="M13307 11363 c-12 -11 -8 -23 8 -23 8 0 15 7 15 15 0 16 -12 20 -23
8z"/>
<path d="M13226 11332 c-23 -5 -51 -30 -42 -39 6 -7 93 24 100 36 5 8 -27 9
-58 3z"/>
<path d="M13210 11240 c0 -5 9 -10 19 -10 11 0 23 5 26 10 4 6 -5 10 -19 10
-14 0 -26 -4 -26 -10z"/>
<path d="M13225 11104 c-21 -21 -19 -32 8 -55 29 -24 44 -24 52 1 13 41 -32
82 -60 54z"/>
<path d="M13346 11043 c-11 -12 -6 -53 7 -53 22 0 38 16 32 33 -7 17 -30 29
-39 20z"/>
<path d="M15805 7888 c-204 -40 -391 -177 -473 -349 -89 -187 -95 -324 -24
-519 70 -194 246 -350 450 -401 87 -22 127 -22 242 -2 141 25 301 113 387 213
45 53 103 154 129 227 20 56 24 84 24 188 0 160 -23 237 -108 366 -71 109
-201 206 -332 248 -131 43 -192 48 -295 29z"/>
<path d="M27075 25060 c-16 -10 -62 -43 -102 -72 -39 -29 -111 -82 -160 -118
-48 -35 -146 -107 -218 -160 -71 -53 -307 -226 -524 -385 -216 -159 -395 -295
-398 -301 -2 -7 55 -92 127 -189 l131 -177 27 18 c24 15 71 49 227 164 185
136 248 182 258 185 7 2 35 -28 62 -67 187 -269 416 -397 642 -360 135 22 317
140 408 263 56 77 84 153 91 248 13 172 -46 311 -248 586 -73 100 -167 227
-208 283 -41 56 -77 102 -80 102 -3 0 -18 -9 -35 -20z m51 -671 c71 -101 93
-158 84 -210 -15 -80 -84 -139 -168 -140 -78 -2 -134 36 -218 147 -48 64 -55
77 -43 89 32 31 274 203 281 199 4 -3 33 -41 64 -85z"/>
<path d="M27265 23344 c-418 -240 -762 -438 -764 -440 -10 -9 16 -62 101 -209
56 -95 100 -161 111 -163 9 -2 144 69 299 158 155 88 286 159 292 156 6 -2 19
-17 28 -33 l17 -30 -52 -82 c-29 -45 -113 -175 -187 -289 -74 -114 -145 -224
-158 -244 l-24 -38 122 -215 c88 -155 127 -215 139 -213 18 4 47 50 341 553
52 88 95 161 96 163 1 2 32 -14 68 -36 180 -108 391 -94 578 41 107 77 164
154 200 271 17 57 20 85 15 165 -6 107 -28 183 -88 306 -68 140 -343 610 -359
612 -8 1 -357 -194 -775 -433z m742 -237 c86 -157 95 -202 57 -279 -20 -39
-92 -78 -143 -78 -90 0 -143 47 -233 203 -35 62 -47 92 -40 99 11 11 284 168
292 168 3 0 33 -51 67 -113z"/>
<path d="M28345 22084 c-113 -12 -258 -56 -370 -112 -256 -127 -421 -325 -486
-582 -19 -73 -21 -103 -16 -215 4 -113 9 -144 40 -235 105 -317 302 -507 612
-591 32 -9 104 -14 200 -14 127 0 163 4 235 24 338 95 574 297 674 579 30 84
31 92 31 257 0 166 -1 172 -33 263 -42 123 -66 174 -117 252 -147 229 -376
362 -641 374 -49 2 -107 2 -129 0z m177 -465 c179 -38 302 -175 315 -354 7
-90 -13 -162 -66 -241 -102 -150 -291 -241 -485 -232 -76 3 -102 9 -157 35
-87 41 -139 88 -177 165 -45 89 -59 165 -43 241 39 188 200 333 426 382 76 17
121 18 187 4z"/>
<path d="M13104 20899 c-3 -5 4 -9 15 -10 35 -1 190 -1 214 1 21 1 21 2 2 9
-28 11 -224 11 -231 0z"/>
<path d="M10310 20870 c0 -6 17 -10 37 -10 43 0 41 5 -4 13 -19 4 -33 2 -33
-3z"/>
<path d="M20330 20841 c0 -12 6 -21 16 -21 9 0 14 7 12 17 -5 25 -28 28 -28 4z"/>
<path d="M10375 20810 c-4 -6 11 -10 41 -10 54 0 55 4 2 14 -21 4 -39 2 -43
-4z"/>
<path d="M11088 20803 c6 -2 18 -2 25 0 6 3 1 5 -13 5 -14 0 -19 -2 -12 -5z"/>
<path d="M11148 20803 c12 -2 30 -2 40 0 9 3 -1 5 -23 4 -22 0 -30 -2 -17 -4z"/>
<path d="M19945 20781 c-6 -11 9 -23 19 -14 9 9 7 23 -3 23 -6 0 -12 -4 -16
-9z"/>
<path d="M20025 20781 c-6 -11 9 -23 19 -14 9 9 7 23 -3 23 -6 0 -12 -4 -16
-9z"/>
<path d="M19580 20764 c0 -8 5 -12 10 -9 6 4 8 11 5 16 -9 14 -15 11 -15 -7z"/>
<path d="M19660 20759 c0 -5 5 -7 10 -4 6 3 10 8 10 11 0 2 -4 4 -10 4 -5 0
-10 -5 -10 -11z"/>
<path d="M19526 20681 c-9 -14 22 -34 40 -27 16 6 15 8 -2 21 -22 17 -31 18
-38 6z"/>
<path d="M10798 20663 c-30 -7 -20 -30 16 -36 19 -3 56 -3 83 -1 26 3 58 5 71
5 12 -1 22 4 22 10 0 6 -6 9 -14 6 -7 -3 -24 0 -38 7 -23 12 -103 17 -140 9z"/>
<path d="M12939 20655 c-62 -12 -65 -29 -4 -28 25 1 72 2 105 2 52 1 60 4 60
20 0 16 -7 18 -55 17 -31 0 -78 -5 -106 -11z"/>
<path d="M11198 20619 c-2 -7 -20 -12 -40 -11 -23 1 -38 -4 -42 -13 -3 -9 -12
-12 -22 -8 -9 3 -20 0 -25 -8 -12 -19 -11 -32 1 -24 6 3 10 0 10 -8 0 -7 7
-14 15 -14 8 0 15 5 15 10 0 5 7 6 15 3 9 -3 18 1 21 9 4 8 15 15 26 15 10 0
16 4 13 10 -4 6 4 9 17 7 17 -1 23 3 23 17 0 22 -21 33 -27 15z"/>
<path d="M10306 20564 c-8 -7 -12 -23 -9 -34 5 -20 11 -22 68 -22 19 0 37 -9
51 -25 15 -18 35 -27 68 -30 41 -5 46 -4 46 15 0 29 29 35 126 27 106 -9 128
-2 119 33 -11 45 -18 48 -132 46 -113 -2 -150 -7 -166 -23 -10 -10 -38 -3 -49
13 -4 6 -13 5 -24 -5 -10 -8 -15 -9 -11 -2 4 6 3 14 -2 17 -5 4 -12 2 -16 -4
-4 -6 -12 -7 -18 -3 -20 13 -37 12 -51 -3z"/>
<path d="M10964 20550 c-12 -5 -23 -17 -26 -27 -4 -15 2 -18 29 -20 29 -1 33
2 33 22 0 29 -9 35 -36 25z"/>
<path d="M29410 20447 c-86 -56 -256 -167 -378 -247 -122 -80 -291 -190 -375
-245 -84 -55 -262 -171 -395 -259 -192 -125 -242 -163 -242 -180 0 -40 99
-399 112 -407 7 -5 20 -9 28 -9 8 0 101 -7 205 -15 179 -15 433 -35 870 -70
105 -8 213 -17 240 -20 28 -2 145 -12 260 -20 116 -9 218 -17 227 -19 9 -2 25
2 34 9 19 13 25 -19 -61 314 -19 74 -38 138 -43 143 -6 6 -983 48 -1137 48
-34 0 -37 2 -25 14 8 7 224 139 480 292 256 154 476 287 489 296 l24 17 -20
78 c-95 371 -99 383 -128 383 -5 0 -80 -46 -165 -103z"/>
<path d="M12632 20488 c-7 -7 -50 -11 -117 -11 -66 0 -108 -4 -113 -11 -20
-33 -11 -36 119 -36 84 0 128 4 124 10 -3 6 1 10 10 10 9 0 13 5 10 10 -9 15
58 12 74 -2 11 -10 13 -10 7 0 -4 7 -1 12 8 13 16 1 28 4 44 9 4 1 -6 6 -23
10 -47 12 -130 11 -143 -2z"/>
<path d="M10385 20460 c-3 -5 3 -10 14 -10 12 0 21 5 21 10 0 6 -6 10 -14 10
-8 0 -18 -4 -21 -10z"/>
<path d="M10878 20463 c7 -3 16 -2 19 1 4 3 -2 6 -13 5 -11 0 -14 -3 -6 -6z"/>
<path d="M10920 20455 c7 -8 16 -13 20 -10 5 3 11 1 14 -4 3 -5 66 -9 139 -8
l132 1 -113 3 c-88 3 -114 7 -119 18 -3 10 -19 15 -45 15 -35 0 -39 -2 -28
-15z"/>
<path d="M11250 20459 c0 -13 441 -22 453 -10 8 8 -22 11 -114 12 -68 1 -172
2 -231 3 -60 1 -108 -1 -108 -5z"/>
<path d="M11846 20463 c-1 -1 -17 -4 -35 -5 -54 -4 -43 -13 19 -16 32 -2 68
-5 79 -7 13 -2 21 1 21 10 0 8 -15 14 -41 17 -22 2 -41 3 -43 1z"/>
<path d="M12865 20461 c-4 -8 31 -11 111 -11 65 0 114 3 110 7 -12 12 -213 15
-221 4z"/>
<path d="M12865 19640 c-3 -5 1 -10 9 -10 9 0 16 5 16 10 0 6 -4 10 -9 10 -6
0 -13 -4 -16 -10z"/>
<path d="M12761 19629 c-27 -11 -33 -25 -15 -39 12 -11 21 -10 48 2 60 29 32
60 -33 37z"/>
<path d="M12495 19426 c-29 -8 -41 -18 -43 -34 -2 -12 1 -22 7 -22 20 0 81 42
81 56 0 8 -1 14 -2 13 -2 0 -21 -6 -43 -13z"/>
<path d="M12070 19045 c-7 -9 -10 -18 -7 -22 8 -7 37 15 37 28 0 14 -16 11
-30 -6z"/>
<path d="M29760 18738 c-107 -17 -480 -72 -829 -122 -503 -73 -636 -95 -645
-108 -7 -12 13 -172 72 -568 45 -303 84 -555 87 -560 9 -15 52 -12 233 15 94
15 170 31 174 38 4 6 5 26 3 42 -25 146 -95 661 -91 670 5 15 264 51 275 39 5
-5 27 -142 50 -304 23 -162 44 -303 47 -312 7 -23 38 -22 228 5 111 17 152 26
159 39 8 12 -2 101 -35 327 -45 310 -45 311 -24 316 38 8 230 34 233 31 1 -1
23 -144 48 -317 53 -366 51 -355 68 -362 18 -7 377 49 389 61 8 8 -133 1048
-149 1087 -8 21 -66 18 -293 -17z"/>
<path d="M11230 18225 c12 -15 30 -12 30 6 0 5 -10 9 -21 9 -18 0 -19 -2 -9
-15z"/>
<path d="M10564 18178 c-6 -10 -4 -10 44 -12 20 -1 42 -5 49 -9 6 -4 14 -3 17
2 3 5 19 7 36 6 30 -3 41 9 17 18 -21 8 -158 4 -163 -5z"/>
<path d="M11037 18173 c-8 -14 9 -46 26 -49 21 -3 22 20 1 40 -17 18 -21 19
-27 9z"/>
<path d="M11090 18110 c-12 -7 -12 -12 -2 -22 9 -9 15 -9 24 0 16 16 -2 34
-22 22z"/>
<path d="M11041 18024 c0 -11 3 -14 6 -6 3 7 2 16 -1 19 -3 4 -6 -2 -5 -13z"/>
<path d="M10916 17915 c-6 -25 -69 -95 -85 -95 -11 0 -24 -50 -16 -58 12 -12
40 15 84 79 24 35 50 68 59 73 12 7 12 10 1 17 -24 15 -37 10 -43 -16z"/>
<path d="M29805 17289 c-88 -4 -340 -15 -560 -24 -716 -29 -766 -32 -777 -43
-8 -8 -8 -99 1 -329 27 -711 32 -808 44 -821 10 -9 53 -10 202 -2 104 5 193
14 198 19 7 7 6 135 -3 366 -7 196 -11 357 -9 359 2 2 67 5 144 7 l140 4 6
-120 c4 -66 9 -208 13 -315 5 -138 11 -199 20 -208 11 -11 49 -12 189 -6 96 4
181 10 188 15 14 9 14 120 -2 437 -5 111 -7 207 -4 212 4 6 60 10 130 10 l123
0 6 -112 c3 -62 10 -213 15 -335 5 -122 12 -227 16 -233 9 -15 363 -2 389 14
16 10 18 24 16 126 -1 63 -3 135 -5 160 -1 25 -8 194 -15 375 -7 182 -15 357
-18 390 l-7 60 -140 1 c-77 1 -212 -2 -300 -7z"/>
<path d="M10250 17085 c0 -17 9 -19 28 -6 11 7 10 10 -3 15 -23 9 -25 8 -25
-9z"/>
<path d="M28532 15928 c-5 -7 -15 -76 -21 -153 -45 -579 -45 -566 -31 -675 39
-326 193 -553 465 -690 141 -71 345 -107 535 -94 218 14 381 84 520 224 119
119 179 228 228 415 28 108 38 183 62 505 11 151 22 283 24 292 10 43 -8 47
-279 68 -143 11 -372 29 -510 40 -137 11 -338 27 -445 35 -253 19 -433 34
-491 40 -31 4 -50 1 -57 -7z m588 -493 c96 -8 299 -24 450 -35 151 -12 280
-22 286 -24 11 -4 -5 -194 -25 -281 -27 -115 -118 -233 -215 -279 -187 -88
-479 -42 -608 97 -41 45 -83 131 -98 202 -13 60 -16 281 -5 316 7 22 -4 22
215 4z"/>
<path d="M28900 14083 c-357 -60 -618 -311 -697 -670 -25 -110 -24 -327 1
-408 66 -214 181 -371 357 -487 229 -151 573 -207 817 -134 151 46 252 107
358 218 102 106 170 231 215 397 30 107 37 320 15 416 -48 205 -147 359 -311
482 -161 121 -403 195 -630 192 -55 -1 -111 -4 -125 -6z m292 -472 c228 -59
359 -206 360 -406 2 -268 -235 -437 -532 -381 -273 51 -448 263 -401 488 32
157 130 260 289 303 71 20 197 18 284 -4z"/>
<path d="M27969 12433 c-22 -57 -101 -269 -115 -308 -7 -22 -14 -47 -14 -57 0
-18 3 -20 378 -157 134 -49 245 -91 248 -94 9 -9 -16 -78 -30 -82 -6 -2 -177
-25 -381 -50 -203 -26 -373 -50 -377 -53 -6 -6 -103 -262 -155 -410 -28 -80
-39 -79 417 -3 223 38 408 67 413 64 4 -2 7 -21 7 -41 0 -82 47 -198 112 -276
36 -44 125 -106 193 -134 124 -53 271 -67 376 -36 192 56 326 221 437 534 17
47 65 179 107 293 42 115 74 214 72 220 -3 7 -56 31 -118 54 -63 23 -199 73
-304 111 -446 163 -843 310 -1030 378 -109 41 -205 74 -212 74 -8 0 -18 -12
-24 -27z m1039 -809 c90 -33 152 -61 152 -69 0 -17 -63 -182 -88 -232 -11 -21
-34 -51 -52 -68 -29 -27 -37 -30 -100 -30 -77 0 -107 15 -149 76 -21 30 -23
42 -18 109 5 67 19 117 69 243 6 15 16 27 22 27 6 0 80 -25 164 -56z"/>
</g>
</svg>
