<?xml version="1.0" standalone="no"?>
<!DOCTYPE svg PUBLIC "-//W3C//DTD SVG 20010904//EN"
 "http://www.w3.org/TR/2001/REC-SVG-20010904/DTD/svg10.dtd">
<svg version="1.0" xmlns="http://www.w3.org/2000/svg"
 width="3264.000000pt" height="3264.000000pt" viewBox="0 0 3264.000000 3264.000000"
 preserveAspectRatio="xMidYMid meet">

<g transform="translate(0.000000,3264.000000) scale(0.100000,-0.100000)"
fill="#000000" stroke="none">
<path d="M15002 32159 c-1847 -47 -3734 -461 -5457 -1199 -1467 -628 -2898
-1539 -4065 -2590 -1397 -1258 -2504 -2695 -3346 -4345 -929 -1822 -1468
-3788 -1600 -5840 -45 -715 -45 -2574 1 -3277 114 -1728 509 -3383 1183 -4948
354 -822 788 -1623 1273 -2353 792 -1188 1676 -2183 2784 -3132 961 -823 2180
-1604 3350 -2145 1670 -772 3400 -1219 5235 -1355 433 -32 725 -37 1945 -32
1259 4 1288 5 1825 52 3235 286 6281 1615 8690 3792 1228 1109 2256 2407 3058
3858 1066 1930 1679 4037 1827 6273 46 697 46 2566 0 3265 -175 2655 -1008
5127 -2474 7337 -983 1482 -2272 2816 -3725 3855 -2292 1638 -4954 2583 -7786
2765 -436 28 -1959 39 -2718 19z m1603 -699 c2792 -97 5460 -950 7760 -2480
846 -563 1525 -1115 2243 -1824 1365 -1348 2437 -2916 3209 -4696 924 -2127
1342 -4527 1192 -6840 -169 -2617 -1002 -5108 -2431 -7275 -1610 -2440 -3892
-4351 -6573 -5502 -2480 -1066 -5219 -1437 -7900 -1072 -1941 264 -3795 903
-5495 1891 -1883 1096 -3523 2614 -4762 4408 -1156 1674 -1956 3559 -2353
5542 -308 1542 -373 3087 -195 4645 161 1411 539 2835 1102 4153 1029 2410
2690 4523 4781 6083 1795 1340 3838 2251 6022 2686 1129 225 2281 320 3400
281z"/>
<path d="M26769 24749 c-621 -456 -628 -461 -754 -554 -60 -44 -129 -94 -152
-110 -23 -17 -45 -35 -47 -42 -5 -11 233 -345 255 -359 12 -7 36 9 214 141 72
52 170 125 219 160 l88 64 75 -99 c139 -186 290 -299 440 -330 79 -17 205 -8
275 19 122 47 274 168 340 271 16 25 38 76 50 114 17 58 20 85 15 170 -10 171
-52 256 -281 566 -54 74 -131 179 -170 232 -39 54 -78 97 -87 98 -9 0 -225
-153 -480 -341z m490 -327 c59 -80 101 -165 101 -206 0 -41 -35 -97 -83 -131
-35 -25 -51 -30 -99 -30 -74 0 -120 33 -207 144 -60 78 -62 83 -45 96 11 7 73
54 139 104 66 49 125 90 132 90 6 1 34 -30 62 -67z"/>
<path d="M27410 23371 c-421 -241 -766 -445 -768 -453 -4 -19 196 -368 211
-368 7 0 142 74 300 165 159 91 290 165 292 165 11 0 45 -72 39 -82 -8 -13
-203 -315 -326 -503 -35 -55 -70 -110 -76 -121 -10 -19 4 -48 109 -233 86
-151 125 -211 138 -211 13 0 77 100 230 360 l212 359 52 -34 c198 -130 461
-94 654 88 65 62 105 123 133 207 19 56 21 80 17 170 -5 111 -24 182 -77 295
-43 91 -354 628 -365 631 -5 2 -354 -194 -775 -435z m737 -234 c100 -181 106
-239 32 -309 -79 -75 -170 -71 -250 11 -46 48 -156 227 -145 238 7 8 290 172
296 172 3 1 33 -50 67 -112z"/>
<path d="M28495 22099 c-198 -20 -424 -112 -570 -232 -318 -261 -401 -663
-215 -1042 84 -171 176 -274 331 -367 375 -227 960 -88 1232 293 176 247 191
563 42 874 -122 254 -344 428 -595 464 -114 16 -149 18 -225 10z m205 -471
c107 -32 199 -108 243 -202 31 -64 46 -170 35 -236 -39 -230 -338 -421 -595
-381 -261 41 -408 308 -297 541 99 207 398 342 614 278z"/>
<path d="M29605 20497 c-61 -39 -160 -104 -220 -143 -61 -39 -191 -124 -290
-189 -99 -65 -236 -155 -305 -200 -690 -450 -625 -404 -623 -445 1 -19 11 -68
22 -110 12 -41 34 -122 49 -180 l29 -105 64 -7 c35 -4 152 -14 259 -23 107 -8
308 -24 445 -35 138 -11 336 -27 440 -35 105 -9 215 -18 245 -21 276 -26 406
-31 420 -18 13 12 9 35 -29 187 -62 245 -69 265 -89 271 -9 2 -98 7 -197 10
-99 4 -229 9 -290 11 -60 3 -236 10 -390 16 -153 5 -281 11 -282 13 -2 1 50
34 115 73 628 377 859 517 871 529 17 15 17 14 -59 304 -36 135 -50 170 -70
170 -3 0 -55 -33 -115 -73z"/>
<path d="M29925 18758 c-104 -16 -479 -71 -833 -122 -454 -66 -648 -97 -658
-108 -13 -13 -9 -55 35 -354 28 -186 64 -436 82 -554 17 -118 36 -220 43 -227
8 -10 52 -6 198 15 103 15 193 33 199 39 9 9 -1 99 -39 364 -28 194 -50 355
-48 357 6 6 276 45 280 41 3 -2 25 -145 49 -318 30 -208 50 -317 59 -322 7 -5
22 -6 33 -4 11 3 90 14 175 26 85 12 160 26 167 33 9 8 2 81 -34 324 -25 172
-43 315 -40 318 12 12 237 38 245 28 5 -5 30 -155 56 -334 25 -178 50 -328 55
-333 9 -9 372 41 393 55 10 5 -4 129 -64 548 -43 298 -80 545 -83 550 -9 15
-63 11 -270 -22z"/>
<path d="M30189 17326 c-2 -2 -105 -6 -229 -10 -124 -4 -250 -9 -280 -11 -30
-3 -183 -10 -340 -16 -604 -22 -723 -28 -733 -38 -7 -7 -7 -96 1 -291 7 -154
17 -407 23 -562 7 -168 16 -289 23 -297 8 -10 32 -12 111 -7 55 3 138 6 185 6
47 0 92 4 100 10 16 10 16 28 -1 448 -7 150 -9 276 -5 279 9 9 268 21 278 13
3 -3 11 -140 18 -305 6 -165 16 -311 21 -324 l10 -24 182 8 c122 4 186 11 195
19 10 10 11 57 2 242 -5 126 -12 268 -14 315 l-3 87 51 6 c28 3 85 6 128 6
l76 0 6 -92 c4 -51 11 -202 16 -336 5 -133 12 -247 16 -253 8 -14 383 -1 402
14 9 7 11 32 8 91 -3 45 -10 205 -16 356 -19 480 -28 648 -35 659 -6 10 -186
16 -196 7z"/>
<path d="M28666 15938 c-3 -13 -8 -59 -11 -103 -3 -44 -12 -161 -20 -260 -27
-340 -27 -355 -11 -469 44 -305 189 -522 437 -655 151 -81 338 -118 544 -107
159 7 254 32 363 92 169 92 291 231 357 409 57 149 74 247 100 565 13 168 27
327 29 353 5 42 3 49 -17 57 -12 5 -114 16 -227 25 -113 9 -315 25 -450 35
-135 11 -362 29 -504 40 -143 11 -309 25 -370 30 -61 5 -135 10 -163 10 -47 0
-53 -3 -57 -22z m689 -484 c456 -34 644 -50 648 -54 8 -10 -13 -206 -28 -265
-57 -220 -202 -335 -427 -335 -277 0 -457 126 -498 349 -12 67 -15 264 -4 306
6 24 10 25 53 20 25 -3 141 -12 256 -21z"/>
<path d="M29055 14103 c-148 -24 -323 -101 -425 -186 -195 -163 -305 -413
-304 -692 1 -234 85 -429 255 -591 108 -102 210 -161 357 -208 396 -125 754
-38 982 237 72 87 145 239 176 367 37 149 37 326 0 453 -47 157 -112 264 -228
373 -164 153 -396 241 -653 249 -71 2 -143 1 -160 -2z m279 -473 c95 -24 185
-71 241 -125 232 -226 119 -599 -203 -666 -123 -25 -287 5 -408 76 -191 112
-261 334 -164 524 87 171 305 250 534 191z"/>
<path d="M28122 12468 c-11 -15 -142 -367 -142 -384 0 -14 29 -26 270 -114
107 -39 233 -85 280 -102 47 -18 86 -32 88 -33 2 -2 -27 -76 -32 -82 0 -1
-170 -23 -376 -48 -206 -26 -380 -52 -387 -57 -6 -5 -18 -28 -26 -51 -8 -23
-45 -122 -81 -220 -61 -167 -70 -207 -42 -207 6 0 76 11 156 25 208 35 632
106 650 108 11 1 16 -13 22 -54 22 -170 119 -308 271 -383 244 -120 482 -83
646 101 94 105 127 178 325 715 32 86 56 164 54 174 -3 19 24 8 -593 234 -242
89 -487 179 -545 200 -184 68 -484 177 -506 184 -12 4 -26 1 -32 -6z m1024
-824 c82 -30 152 -59 155 -62 10 -11 -77 -232 -109 -277 -18 -26 -44 -46 -74
-59 -42 -17 -51 -18 -93 -6 -115 32 -158 122 -121 255 26 92 71 205 82 205 6
0 78 -25 160 -56z"/>
</g>
</svg>
